<?xml version="1.0"?>
<!DOCTYPE svg PUBLIC "-//W3C//DTD SVG 1.1//EN" "http://www.w3.org/Graphics/SVG/1.1/DTD/svg11.dtd">
<!--Phoronix Test Suite v8.6.1 [ http://www.phoronix-test-suite.com/ ]-->
<svg xmlns="http://www.w3.org/2000/svg" xmlns:xlink="http://www.w3.org/1999/xlink" version="1.1" font-family="sans-serif, droid-sans, helvetica, verdana, tahoma" viewbox="0 0 600 149" width="600" height="149" preserveAspectRatio="xMinYMin meet"><rect x="0" y="0" width="600" height="149" fill="#FEFEFE" stroke="#757575" stroke-width="2"/><g stroke="#757575" stroke-width="1"><line x1="216" y1="64" x2="216" y2="111"/><line x1="216" y1="110" x2="586" y2="110"/></g><a xlink:href="https://www.phoronix-test-suite.com/" xlink:show="new"><text x="585" y="59" font-size="8" fill="#065695" text-anchor="end" xlink:show="new">PHORONIX-TEST-SUITE.COM</text></a><polygon points="216,56 225,60.5 225,51.5" fill="#065695" stroke="#949494" stroke-width="1"/><text x="228" y="59" font-size="8" fill="#065695" text-anchor="start">Milliseconds, Less Is Better</text><rect x="0" y="0" width="600" height="48" fill="#231f20"/><text x="6" y="19" font-size="17" fill="#FEFEFE" text-anchor="start" xlink:show="new" font-weight="bold">Counter-Strike: Global Offensive</text><text x="6" y="36" font-size="11" font-weight="bold" fill="#FEFEFE" text-anchor="start">Resolution: 1920 x 1080 - Total Frame Time</text><path d="m74 22v9m-5-16v16m-5-28v28m-23-2h12.5c2.485281 0 4.5-2.014719 4.5-4.5s-2.014719-4.5-4.5-4.5h-8c-2.485281 0-4.5-2.014719-4.5-4.5s2.014719-4.5 4.5-4.5h12.5m-21 5h-11m11 13h-2c-4.970563 0-9-4.029437-9-9v-20m-24 40v-20c0-4.970563 4.0294373-9 9-9 4.970563 0 9 4.029437 9 9s-4.029437 9-9 9h-9" stroke="#ffffff" stroke-width="4" fill="none" transform="translate(508,4)"/><g font-size="10" fill="#231f20" font-weight="bold"><text x="211" y="85" text-anchor="end">ThinkPad T495s Steam Gaming</text></g><g font-size="10" fill="#065695" text-anchor="middle"><text x="280" y="125">2000</text><text x="342" y="125">4000</text><text x="404" y="125">6000</text><text x="466" y="125">8000</text><text x="528" y="125">10000</text></g><g stroke="#BABABA" stroke-width="1"><line x1="280" y1="64" x2="280" y2="105" stroke-dasharray="5,5"/><line x1="280" y1="106" x2="280" y2="115"/><line x1="342" y1="64" x2="342" y2="105" stroke-dasharray="5,5"/><line x1="342" y1="106" x2="342" y2="115"/><line x1="404" y1="64" x2="404" y2="105" stroke-dasharray="5,5"/><line x1="404" y1="106" x2="404" y2="115"/><line x1="466" y1="64" x2="466" y2="105" stroke-dasharray="5,5"/><line x1="466" y1="106" x2="466" y2="115"/><line x1="528" y1="64" x2="528" y2="105" stroke-dasharray="5,5"/><line x1="528" y1="106" x2="528" y2="115"/></g><g stroke="#949494" stroke-width="2"><line x1="217" y1="87" x2="219" y2="87"/><line x1="217" y1="70" x2="217" y2="104"/><line x1="219" y1="70" x2="219" y2="104"/></g><g stroke="#949494" stroke-width="1"><rect x="218" y="70" width="0" height="34" fill="#2196f3" xlink:title="Min: 10.11 / Avg: 60.97 / Max: 12608.2"/></g><g stroke="#231f20" stroke-width="1"><line x1="218" y1="70" x2="218" y2="104"/></g><g font-size="8" fill="#065695" text-anchor="end"><text x="211" y="104">Min: 10.11 / Avg: 60.97 / Max: 12608.2</text></g><g fill="#231f20"><circle cx="323" cy="87" r="1"/><circle cx="355" cy="87" r="1"/><circle cx="604" cy="87" r="1"/><circle cx="244" cy="87" r="1"/><circle cx="320" cy="87" r="1"/><circle cx="220" cy="87" r="1"/><circle cx="224" cy="87" r="1"/><circle cx="221" cy="87" r="1"/><circle cx="217" cy="87" r="1"/><circle cx="220" cy="87" r="1"/><circle cx="220" cy="87" r="1"/><circle cx="220" cy="87" r="1"/><circle cx="220" cy="87" r="1"/><circle cx="220" cy="87" r="1"/><circle cx="217" cy="87" r="1"/><circle cx="220" cy="87" r="1"/><circle cx="220" cy="87" r="1"/><circle cx="217" cy="87" r="1"/><circle cx="220" cy="87" r="1"/><circle cx="217" cy="87" r="1"/><circle cx="220" cy="87" r="1"/><circle cx="220" cy="87" r="1"/><circle cx="220" cy="87" r="1"/><circle cx="220" cy="87" r="1"/><circle cx="217" cy="87" r="1"/><circle cx="216" cy="87" r="1"/><circle cx="216" cy="87" r="1"/><circle cx="216" cy="87" r="1"/><circle cx="216" cy="87" r="1"/><circle cx="217" cy="87" r="1"/><circle cx="217" cy="87" r="1"/><circle cx="219" cy="87" r="1"/><circle cx="216" cy="87" r="1"/><circle cx="216" cy="87" r="1"/><circle cx="217" cy="87" r="1"/><circle cx="216" cy="87" r="1"/><circle cx="216" cy="87" r="1"/><circle cx="216" cy="87" r="1"/><circle cx="217" cy="87" r="1"/><circle cx="216" cy="87" r="1"/><circle cx="216" cy="87" r="1"/><circle cx="217" cy="87" r="1"/><circle cx="216" cy="87" r="1"/><circle cx="219" cy="87" r="1"/><circle cx="216" cy="87" r="1"/><circle cx="220" cy="87" r="1"/><circle cx="216" cy="87" r="1"/><circle cx="217" cy="87" r="1"/><circle cx="216" cy="87" r="1"/><circle cx="217" cy="87" r="1"/><circle cx="217" cy="87" r="1"/><circle cx="216" cy="87" r="1"/><circle cx="220" cy="87" r="1"/><circle cx="216" cy="87" r="1"/><circle cx="224" cy="87" r="1"/><circle cx="220" cy="87" r="1"/><circle cx="216" cy="87" r="1"/><circle cx="220" cy="87" r="1"/><circle cx="216" cy="87" r="1"/><circle cx="220" cy="87" r="1"/><circle cx="216" cy="87" r="1"/><circle cx="220" cy="87" r="1"/><circle cx="217" cy="87" r="1"/><circle cx="220" cy="87" r="1"/><circle cx="217" cy="87" r="1"/><circle cx="220" cy="87" r="1"/><circle cx="216" cy="87" r="1"/><circle cx="220" cy="87" r="1"/><circle cx="216" cy="87" r="1"/><circle cx="220" cy="87" r="1"/><circle cx="219" cy="87" r="1"/><circle cx="220" cy="87" r="1"/><circle cx="216" cy="87" r="1"/><circle cx="220" cy="87" r="1"/><circle cx="216" cy="87" r="1"/><circle cx="220" cy="87" r="1"/><circle cx="216" cy="87" r="1"/><circle cx="220" cy="87" r="1"/><circle cx="216" cy="87" r="1"/><circle cx="220" cy="87" r="1"/><circle cx="221" cy="87" r="1"/><circle cx="216" cy="87" r="1"/><circle cx="220" cy="87" r="1"/><circle cx="220" cy="87" r="1"/><circle cx="220" cy="87" r="1"/><circle cx="216" cy="87" r="1"/><circle cx="220" cy="87" r="1"/><circle cx="222" cy="87" r="1"/><circle cx="217" cy="87" r="1"/><circle cx="220" cy="87" r="1"/><circle cx="216" cy="87" r="1"/><circle cx="220" cy="87" r="1"/><circle cx="216" cy="87" r="1"/><circle cx="220" cy="87" r="1"/><circle cx="216" cy="87" r="1"/><circle cx="220" cy="87" r="1"/><circle cx="216" cy="87" r="1"/><circle cx="220" cy="87" r="1"/><circle cx="217" cy="87" r="1"/><circle cx="220" cy="87" r="1"/><circle cx="216" cy="87" r="1"/><circle cx="220" cy="87" r="1"/><circle cx="220" cy="87" r="1"/><circle cx="216" cy="87" r="1"/><circle cx="216" cy="87" r="1"/><circle cx="217" cy="87" r="1"/><circle cx="220" cy="87" r="1"/><circle cx="217" cy="87" r="1"/><circle cx="220" cy="87" r="1"/><circle cx="216" cy="87" r="1"/><circle cx="220" cy="87" r="1"/><circle cx="217" cy="87" r="1"/><circle cx="220" cy="87" r="1"/><circle cx="216" cy="87" r="1"/><circle cx="220" cy="87" r="1"/><circle cx="216" cy="87" r="1"/><circle cx="220" cy="87" r="1"/><circle cx="216" cy="87" r="1"/><circle cx="217" cy="87" r="1"/><circle cx="220" cy="87" r="1"/><circle cx="220" cy="87" r="1"/><circle cx="217" cy="87" r="1"/><circle cx="220" cy="87" r="1"/><circle cx="216" cy="87" r="1"/><circle cx="220" cy="87" r="1"/><circle cx="216" cy="87" r="1"/><circle cx="217" cy="87" r="1"/><circle cx="220" cy="87" r="1"/><circle cx="217" cy="87" r="1"/><circle cx="220" cy="87" r="1"/><circle cx="217" cy="87" r="1"/><circle cx="217" cy="87" r="1"/><circle cx="220" cy="87" r="1"/><circle cx="220" cy="87" r="1"/><circle cx="220" cy="87" r="1"/><circle cx="216" cy="87" r="1"/><circle cx="216" cy="87" r="1"/><circle cx="220" cy="87" r="1"/><circle cx="219" cy="87" r="1"/><circle cx="216" cy="87" r="1"/><circle cx="220" cy="87" r="1"/><circle cx="217" cy="87" r="1"/><circle cx="220" cy="87" r="1"/><circle cx="220" cy="87" r="1"/><circle cx="220" cy="87" r="1"/><circle cx="217" cy="87" r="1"/><circle cx="220" cy="87" r="1"/><circle cx="216" cy="87" r="1"/><circle cx="220" cy="87" r="1"/><circle cx="216" cy="87" r="1"/><circle cx="220" cy="87" r="1"/><circle cx="216" cy="87" r="1"/><circle cx="220" cy="87" r="1"/><circle cx="220" cy="87" r="1"/><circle cx="217" cy="87" r="1"/><circle cx="216" cy="87" r="1"/><circle cx="216" cy="87" r="1"/><circle cx="220" cy="87" r="1"/><circle cx="216" cy="87" r="1"/><circle cx="216" cy="87" r="1"/><circle cx="216" cy="87" r="1"/><circle cx="216" cy="87" r="1"/><circle cx="216" cy="87" r="1"/><circle cx="216" cy="87" r="1"/><circle cx="216" cy="87" r="1"/><circle cx="219" cy="87" r="1"/><circle cx="216" cy="87" r="1"/><circle cx="216" cy="87" r="1"/><circle cx="220" cy="87" r="1"/><circle cx="216" cy="87" r="1"/><circle cx="219" cy="87" r="1"/><circle cx="217" cy="87" r="1"/><circle cx="217" cy="87" r="1"/><circle cx="220" cy="87" r="1"/><circle cx="217" cy="87" r="1"/><circle cx="220" cy="87" r="1"/><circle cx="220" cy="87" r="1"/><circle cx="220" cy="87" r="1"/><circle cx="217" cy="87" r="1"/><circle cx="220" cy="87" r="1"/><circle cx="220" cy="87" r="1"/><circle cx="217" cy="87" r="1"/><circle cx="220" cy="87" r="1"/><circle cx="217" cy="87" r="1"/><circle cx="220" cy="87" r="1"/><circle cx="217" cy="87" r="1"/><circle cx="220" cy="87" r="1"/><circle cx="216" cy="87" r="1"/><circle cx="216" cy="87" r="1"/><circle cx="216" cy="87" r="1"/><circle cx="217" cy="87" r="1"/><circle cx="216" cy="87" r="1"/><circle cx="216" cy="87" r="1"/><circle cx="219" cy="87" r="1"/><circle cx="216" cy="87" r="1"/><circle cx="217" cy="87" r="1"/><circle cx="216" cy="87" r="1"/><circle cx="216" cy="87" r="1"/><circle cx="216" cy="87" r="1"/><circle cx="219" cy="87" r="1"/><circle cx="217" cy="87" r="1"/><circle cx="220" cy="87" r="1"/><circle cx="219" cy="87" r="1"/><circle cx="220" cy="87" r="1"/><circle cx="220" cy="87" r="1"/><circle cx="220" cy="87" r="1"/><circle cx="219" cy="87" r="1"/><circle cx="220" cy="87" r="1"/><circle cx="220" cy="87" r="1"/><circle cx="216" cy="87" r="1"/><circle cx="220" cy="87" r="1"/><circle cx="220" cy="87" r="1"/><circle cx="220" cy="87" r="1"/><circle cx="220" cy="87" r="1"/><circle cx="220" cy="87" r="1"/><circle cx="220" cy="87" r="1"/><circle cx="220" cy="87" r="1"/></g><line x1="216" y1="110" x2="585" y2="110" stroke="#757575" stroke-width="1"/><rect x="0" y="132" width="600" height="17" fill="#231f20"/><a xlink:href="https://www.phoronix-test-suite.com/" xlink:show="new"><text x="585" y="144" font-size="9" fill="#FEFEFE" text-anchor="end" xlink:show="new">Phoronix Test Suite 8.6.1</text></a></svg>
