<svg xmlns="http://www.w3.org/2000/svg" xmlns:xlink="http://www.w3.org/1999/xlink" version="1.1" font-family="sans-serif, droid-sans, helvetica, verdana, tahoma" viewbox="0 0 520 377" width="520" height="377" preserveAspectRatio="xMinYMin meet"><rect x="0" y="0" width="520" height="377" fill="#FEFEFE" stroke="#757575" stroke-width="2"/><rect x="1" y="1" width="519" height="376" fill="#FEFEFE" stroke="#757575" stroke-width="1"/><path d="m74 22v9m-5-16v16m-5-28v28m-23-2h12.5c2.485281 0 4.5-2.014719 4.5-4.5s-2.014719-4.5-4.5-4.5h-8c-2.485281 0-4.5-2.014719-4.5-4.5s2.014719-4.5 4.5-4.5h12.5m-21 5h-11m11 13h-2c-4.970563 0-9-4.029437-9-9v-20m-24 40v-20c0-4.970563 4.0294373-9 9-9 4.970563 0 9 4.029437 9 9s-4.029437 9-9 9h-9" stroke="#000000" stroke-width="4" fill="none" transform="translate(118,28)"/><line x1="315" y1="193" x2="520" y2="193" stroke="#BABABA" stroke-width="336" stroke-dasharray="205,205"/><line x1="260" y1="73" x2="260" y2="361" stroke="#949494" stroke-width="520" stroke-dasharray="16,16"/><line x1="315" y1="193" x2="520" y2="193" stroke="#757575" stroke-width="336" stroke-dasharray="1,204"/><rect x="1" y="1" width="518" height="25" fill="#231f20"/><text x="5" y="19" font-size="17" fill="#FEFEFE" text-anchor="start">ThinkPad T495s Steam Gaming</text><line x1="1" y1="25" x2="519" y2="25" stroke="#757575" stroke-width="1"/><g font-size="10" font-weight="bold" fill="#065695" text-anchor="end"><a xlink:href="https://openbenchmarking.org/test/pts/bioshock-infinite-1.0.2" xlink:show="new"><text x="313" y="85">bioshock-infinite: 1024 x 768 - Medium</text></a><a xlink:href="https://openbenchmarking.org/test/pts/bioshock-infinite-1.0.2" xlink:show="new"><text x="313" y="101">bioshock-infinite: 1920 x 1080 - Medium</text></a><a xlink:href="https://openbenchmarking.org/test/pts/bioshock-infinite-1.0.2" xlink:show="new"><text x="313" y="117">bioshock-infinite: 1024 x 768 - Very High</text></a><a xlink:href="https://openbenchmarking.org/test/pts/bioshock-infinite-1.0.2" xlink:show="new"><text x="313" y="133">bioshock-infinite: 1920 x 1080 - Very High</text></a><a xlink:href="https://openbenchmarking.org/test/pts/csgo-1.6.0" xlink:show="new"><text x="313" y="149">csgo: 1024 x 768</text></a><text x="313" y="165">Counter-Strike: Global Offensive (Avg)</text><a xlink:href="https://openbenchmarking.org/test/pts/csgo-1.6.0" xlink:show="new"><text x="313" y="181">csgo: 1920 x 1080</text></a><text x="313" y="197">Counter-Strike: Global Offensive (Avg)</text><a xlink:href="https://openbenchmarking.org/test/pts/dirt-rally-1.1.0" xlink:show="new"><text x="313" y="213">dirt-rally: 1024 x 768 - High</text></a><a xlink:href="https://openbenchmarking.org/test/pts/dirt-rally-1.1.0" xlink:show="new"><text x="313" y="229">dirt-rally: 1920 x 1080 - High</text></a><a xlink:href="https://openbenchmarking.org/test/pts/dirt-rally-1.1.0" xlink:show="new"><text x="313" y="245">dirt-rally: 1024 x 768 - Medium</text></a><a xlink:href="https://openbenchmarking.org/test/pts/dirt-rally-1.1.0" xlink:show="new"><text x="313" y="261">dirt-rally: 1920 x 1080 - Medium</text></a><a xlink:href="https://openbenchmarking.org/test/pts/dirt-rally-1.1.0" xlink:show="new"><text x="313" y="277">dirt-rally: 1024 x 768 - Ultra Low</text></a><a xlink:href="https://openbenchmarking.org/test/pts/dirt-rally-1.1.0" xlink:show="new"><text x="313" y="293">dirt-rally: 1920 x 1080 - Ultra Low</text></a><a xlink:href="https://openbenchmarking.org/test/pts/dota2-1.2.6" xlink:show="new"><text x="313" y="309">dota2: 1024 x 768 - OpenGL</text></a><a xlink:href="https://openbenchmarking.org/test/pts/dota2-1.2.6" xlink:show="new"><text x="313" y="325">dota2: 1024 x 768 - Vulkan</text></a><a xlink:href="https://openbenchmarking.org/test/pts/dota2-1.2.6" xlink:show="new"><text x="313" y="341">dota2: 1920 x 1080 - OpenGL</text></a><a xlink:href="https://openbenchmarking.org/test/pts/dota2-1.2.6" xlink:show="new"><text x="313" y="357">dota2: 1920 x 1080 - Vulkan</text></a></g><g font-size="10" fill="#065695" font-weight="bold" text-anchor="middle" dominant-baseline="text-before-edge"><text x="418" y="49">ThinkPad T495s Steam Gaming</text></g><g fill="#BABABA"/><g text-anchor="middle" font-size="10" fill="#065695"><text x="418" y="86" xlink:title="STD Dev: 23.42%;  STD Error: 2.94">35.56</text><text x="418" y="102" xlink:title="STD Dev: 1.31%;  STD Error: 0.15">19.57</text><text x="418" y="118" xlink:title="STD Dev: 35.76%;  STD Error: 3.18">26.69</text><text x="418" y="134" xlink:title="STD Dev: 0.14%;  STD Error: 0.01">18.57</text><text x="418" y="150" xlink:title="STD Dev: 1.08%;  STD Error: 0.25">40.40</text><text x="418" y="166">27.09</text><text x="418" y="182" xlink:title="STD Dev: 23.31%;  STD Error: 3.31">42.67</text><text x="418" y="198">60.97</text><text x="418" y="214" xlink:title="STD Dev: 4.71%;  STD Error: 0.42">26.70</text><text x="418" y="230" xlink:title="STD Dev: 0.74%;  STD Error: 0.11">25.77</text><text x="418" y="246" xlink:title="STD Dev: 3.33%;  STD Error: 0.54">32.50</text><text x="418" y="262" xlink:title="STD Dev: 1.31%;  STD Error: 0.24">32.32</text><text x="418" y="278" xlink:title="STD Dev: 0.57%;  STD Error: 0.26">77.67</text><text x="418" y="294" xlink:title="STD Dev: 0.90%;  STD Error: 0.40">76.57</text><text x="418" y="310" xlink:title="STD Dev: 2.03%;  STD Error: 0.55">46.87</text><text x="418" y="326" xlink:title="STD Dev: 1.24%;  STD Error: 0.34">47.13</text><text x="418" y="342" xlink:title="STD Dev: 2.75%;  STD Error: 0.45">28.40</text><text x="418" y="358" xlink:title="STD Dev: 2.32%;  STD Error: 0.38">28.67</text></g><line x1="260" y1="73" x2="260" y2="361" stroke="#949494" stroke-width="520" stroke-dasharray="1,15"/><rect x="0" y="361" width="520" height="16" fill="#231f20"/><a xlink:href="https://www.openbenchmarking.org/" xlink:show="new"><text x="518" y="374" font-size="10" fill="#FFFFFF" text-anchor="end" xlink:show="new">OpenBenchmarking.org</text></a></svg>
