<?xml version="1.0"?>
<!DOCTYPE svg PUBLIC "-//W3C//DTD SVG 1.1//EN" "http://www.w3.org/Graphics/SVG/1.1/DTD/svg11.dtd">
<!--Phoronix Test Suite v8.6.1 [ http://www.phoronix-test-suite.com/ ]-->
<svg xmlns="http://www.w3.org/2000/svg" xmlns:xlink="http://www.w3.org/1999/xlink" version="1.1" font-family="sans-serif, droid-sans, helvetica, verdana, tahoma" viewbox="0 0 636 412" width="636" height="412" preserveAspectRatio="xMinYMin meet"><rect x="0" y="0" width="636" height="412" fill="#FEFEFE" stroke="#757575" stroke-width="2"/><rect x="2" y="1" width="633" height="38" fill="#231f20" stroke="#757575" stroke-width="1"/><text x="318" y="19" font-size="17" fill="#FEFEFE" text-anchor="middle" font-weight="bold">ThinkPad T495s Steam Gaming</text><a xlink:href="https://www.phoronix-test-suite.com/" xlink:show="new"><text x="4" y="36" font-size="8" fill="#FEFEFE" text-anchor="start" xlink:show="new" font-weight="bold">PHORONIX-TEST-SUITE.COM</text></a><a xlink:href="https://www.phoronix-test-suite.com/" xlink:show="new"><text x="632" y="36" font-size="8" fill="#FEFEFE" text-anchor="end" xlink:show="new" font-weight="bold">Phoronix Test Suite 8.6.1</text></a><g fill="#949494"><rect x="0" y="55" width="636" height="16"/><rect x="0" y="87" width="636" height="16"/><rect x="0" y="119" width="636" height="16"/><rect x="0" y="151" width="636" height="16"/><rect x="0" y="183" width="636" height="16"/><rect x="0" y="215" width="636" height="16"/><rect x="0" y="247" width="636" height="16"/><rect x="0" y="279" width="636" height="16"/></g><g fill="none" stroke-width="1" stroke="#005a00"/><g font-size="10" fill="#065695" text-anchor="middle" font-weight="bold"><a xlink:href="http://openbenchmarking.org/s/AMD Ryzen 5 PRO 3500U w/ Radeon Vega Mobile Gfx @ 2.10GHz (4 Cores / 8 Threads)" xlink:show="new"><text x="318" y="52" xlink:title="Processor: AMD Ryzen 5 PRO 3500U w/ Radeon Vega Mobile Gfx @ 2.10GHz (4 Cores / 8 Threads)">AMD Ryzen 5 PRO 3500U w/ Radeon Vega Mobile Gfx @ 2.10GHz (4 Cores / 8 Threads)</text></a><a xlink:href="http://openbenchmarking.org/s/LENOVO 20QJCTO1WW (R13ET27W1.01 BIOS)" xlink:show="new"><text x="318" y="68" xlink:title="Motherboard: LENOVO 20QJCTO1WW (R13ET27W1.01 BIOS)">LENOVO 20QJCTO1WW (R13ET27W1.01 BIOS)</text></a><a xlink:href="http://openbenchmarking.org/s/AMD Raven/Raven2" xlink:show="new"><text x="318" y="84" xlink:title="Chipset: AMD Raven/Raven2">AMD Raven/Raven2</text></a><a xlink:href="http://openbenchmarking.org/s/14336MB" xlink:show="new"><text x="318" y="100" xlink:title="Memory: 14336MB">14336MB</text></a><a xlink:href="http://openbenchmarking.org/s/256GB Western Digital PC SN720 SDAQNTW-256G-1001" xlink:show="new"><text x="318" y="116" xlink:title="Disk: 256GB Western Digital PC SN720 SDAQNTW-256G-1001">256GB Western Digital PC SN720 SDAQNTW-256G-1001</text></a><a xlink:href="http://openbenchmarking.org/s/AMD Picasso 2GB (1200/1200MHz)" xlink:show="new"><text x="318" y="132" xlink:title="Graphics: AMD Picasso 2GB (1200/1200MHz)">AMD Picasso 2GB (1200/1200MHz)</text></a><a xlink:href="http://openbenchmarking.org/s/AMD Raven/Raven2/Fenghuang" xlink:show="new"><text x="318" y="148" xlink:title="Audio: AMD Raven/Raven2/Fenghuang">AMD Raven/Raven2/Fenghuang</text></a><a xlink:href="http://openbenchmarking.org/s/Realtek RTL8111/8168/8411 + Intel-AC 9260" xlink:show="new"><text x="318" y="164" xlink:title="Network: Realtek RTL8111/8168/8411 + Intel-AC 9260">Realtek RTL8111/8168/8411 + Intel-AC 9260</text></a><a xlink:href="http://openbenchmarking.org/s/Fedora 30" xlink:show="new"><text x="318" y="180" xlink:title="OS: Fedora 30">Fedora 30</text></a><a xlink:href="http://openbenchmarking.org/s/5.2.9-200.fc30.x86_64 (x86_64)" xlink:show="new"><text x="318" y="196" xlink:title="Kernel: 5.2.9-200.fc30.x86_64 (x86_64)">5.2.9-200.fc30.x86_64 (x86_64)</text></a><a xlink:href="http://openbenchmarking.org/s/GNOME Shell 3.32.2" xlink:show="new"><text x="318" y="212" xlink:title="Desktop: GNOME Shell 3.32.2">GNOME Shell 3.32.2</text></a><a xlink:href="http://openbenchmarking.org/s/X Server + Wayland" xlink:show="new"><text x="318" y="228" xlink:title="Display Server: X Server + Wayland">X Server + Wayland</text></a><a xlink:href="http://openbenchmarking.org/s/4.5 Mesa 19.1.5 (LLVM 8.0.0)" xlink:show="new"><text x="318" y="244" xlink:title="OpenGL: 4.5 Mesa 19.1.5 (LLVM 8.0.0)">4.5 Mesa 19.1.5 (LLVM 8.0.0)</text></a><a xlink:href="http://openbenchmarking.org/s/1.1.90" xlink:show="new"><text x="318" y="260" xlink:title="Vulkan: 1.1.90">1.1.90</text></a><a xlink:href="http://openbenchmarking.org/s/GCC 9.2.1 20190827" xlink:show="new"><text x="318" y="276" xlink:title="Compiler: GCC 9.2.1 20190827">GCC 9.2.1 20190827</text></a><a xlink:href="http://openbenchmarking.org/s/ext4" xlink:show="new"><text x="318" y="292" xlink:title="File-System: ext4">ext4</text></a><a xlink:href="http://openbenchmarking.org/s/1920x1080" xlink:show="new"><text x="318" y="308" xlink:title="Screen Resolution: 1920x1080">1920x1080</text></a></g><g font-size="7" fill="#065695" text-anchor="end"><text x="632" y="48">Processor</text><text x="632" y="64">Motherboard</text><text x="632" y="80">Chipset</text><text x="632" y="96">Memory</text><text x="632" y="112">Disk</text><text x="632" y="128">Graphics</text><text x="632" y="144">Audio</text><text x="632" y="160">Network</text><text x="632" y="176">OS</text><text x="632" y="192">Kernel</text><text x="632" y="208">Desktop</text><text x="632" y="224">Display Server</text><text x="632" y="240">OpenGL</text><text x="632" y="256">Vulkan</text><text x="632" y="272">Compiler</text><text x="632" y="288">File-System</text><text x="632" y="304">Screen Resolution</text></g><g stroke="#757575" stroke-width="1"><line x1="0" y1="39" x2="636" y2="39"/><line x1="0" y1="55" x2="636" y2="55"/><line x1="0" y1="71" x2="636" y2="71"/><line x1="0" y1="87" x2="636" y2="87"/><line x1="0" y1="103" x2="636" y2="103"/><line x1="0" y1="119" x2="636" y2="119"/><line x1="0" y1="135" x2="636" y2="135"/><line x1="0" y1="151" x2="636" y2="151"/><line x1="0" y1="167" x2="636" y2="167"/><line x1="0" y1="183" x2="636" y2="183"/><line x1="0" y1="199" x2="636" y2="199"/><line x1="0" y1="215" x2="636" y2="215"/><line x1="0" y1="231" x2="636" y2="231"/><line x1="0" y1="247" x2="636" y2="247"/><line x1="0" y1="263" x2="636" y2="263"/><line x1="0" y1="279" x2="636" y2="279"/><line x1="0" y1="295" x2="636" y2="295"/></g><rect x="1" y="311" width="634" height="101" fill="#231f20"/><text x="4" y="332" font-size="9" fill="#FEFEFE" text-anchor="start" width="632">- Scaling Governor: acpi-cpufreq performance</text><text x="4" y="344" font-size="9" fill="#FEFEFE" text-anchor="start" xlink:title=""><tspan x="4" y="344" dx="0" dy="0">- SELinux + usercopy/swapgs barriers and __user pointer sanitization + Full AMD retpoline IBPB: conditional STIBP:</tspan><tspan x="4" y="344" dx="5" dy="10"> disabled RSB filling + SSB disabled via prctl and seccomp </tspan></text></svg>
