<?xml version="1.0"?>
<!DOCTYPE svg PUBLIC "-//W3C//DTD SVG 1.1//EN" "http://www.w3.org/Graphics/SVG/1.1/DTD/svg11.dtd">
<!--Phoronix Test Suite v8.6.1 [ http://www.phoronix-test-suite.com/ ]-->
<svg xmlns="http://www.w3.org/2000/svg" xmlns:xlink="http://www.w3.org/1999/xlink" version="1.1" font-family="sans-serif, droid-sans, helvetica, verdana, tahoma" viewbox="0 0 641 297" width="641" height="297" preserveAspectRatio="xMinYMin meet"><rect x="0" y="0" width="641" height="297" fill="#FEFEFE" stroke="#757575" stroke-width="2"/><rect x="1" y="1" width="640" height="296" fill="#FEFEFE" stroke="#757575" stroke-width="1"/><path d="m74 22v9m-5-16v16m-5-28v28m-23-2h12.5c2.485281 0 4.5-2.014719 4.5-4.5s-2.014719-4.5-4.5-4.5h-8c-2.485281 0-4.5-2.014719-4.5-4.5s2.014719-4.5 4.5-4.5h12.5m-21 5h-11m11 13h-2c-4.970563 0-9-4.029437-9-9v-20m-24 40v-20c0-4.970563 4.0294373-9 9-9 4.970563 0 9 4.029437 9 9s-4.029437 9-9 9h-9" stroke="#000000" stroke-width="4" fill="none" transform="translate(193,28)"/><line x1="466" y1="153" x2="641" y2="153" stroke="#BABABA" stroke-width="256" stroke-dasharray="175,175"/><line x1="321" y1="73" x2="321" y2="281" stroke="#949494" stroke-width="641" stroke-dasharray="16,16"/><line x1="466" y1="153" x2="641" y2="153" stroke="#757575" stroke-width="256" stroke-dasharray="1,174"/><rect x="1" y="1" width="639" height="25" fill="#231f20"/><text x="5" y="19" font-size="17" fill="#FEFEFE" text-anchor="start">ThinkPad T495s</text><line x1="1" y1="25" x2="640" y2="25" stroke="#757575" stroke-width="1"/><g font-size="10" font-weight="bold" fill="#065695" text-anchor="end"><a xlink:href="https://openbenchmarking.org/test/pts/ramspeed-1.4.2" xlink:show="new"><text x="464" y="85">ramspeed: Integer Add</text></a><a xlink:href="https://openbenchmarking.org/test/pts/ramspeed-1.4.2" xlink:show="new"><text x="464" y="101">ramspeed: Integer Copy</text></a><a xlink:href="https://openbenchmarking.org/test/pts/ramspeed-1.4.2" xlink:show="new"><text x="464" y="117">ramspeed: Integer Scale</text></a><a xlink:href="https://openbenchmarking.org/test/pts/ramspeed-1.4.2" xlink:show="new"><text x="464" y="133">ramspeed: Floating-Point Add</text></a><a xlink:href="https://openbenchmarking.org/test/pts/stream-1.3.1" xlink:show="new"><text x="464" y="149">stream: Add</text></a><a xlink:href="https://openbenchmarking.org/test/pts/stream-1.3.1" xlink:show="new"><text x="464" y="165">stream: Copy</text></a><a xlink:href="https://openbenchmarking.org/test/pts/stream-1.3.1" xlink:show="new"><text x="464" y="181">stream: Scale</text></a><a xlink:href="https://openbenchmarking.org/test/pts/tinymembench-1.0.2" xlink:show="new"><text x="464" y="197">tinymembench: Standard Memcpy</text></a><a xlink:href="https://openbenchmarking.org/test/pts/tinymembench-1.0.2" xlink:show="new"><text x="464" y="213">tinymembench: Standard Memset</text></a><a xlink:href="https://openbenchmarking.org/test/pts/mbw-1.0.0" xlink:show="new"><text x="464" y="229">mbw: Test: Memory Copy - Array Size: 1024 MiB</text></a><a xlink:href="https://openbenchmarking.org/test/pts/mbw-1.0.0" xlink:show="new"><text x="464" y="245">mbw: Test: Memory Copy, Fixed Block Size - Array Size: 1024 MiB</text></a><a xlink:href="https://openbenchmarking.org/test/pts/cachebench-1.1.2" xlink:show="new"><text x="464" y="261">cachebench: Read Cache</text></a><a xlink:href="https://openbenchmarking.org/test/pts/cachebench-1.1.2" xlink:show="new"><text x="464" y="277">cachebench: Write Cache</text></a></g><g font-size="10" fill="#065695" font-weight="bold" text-anchor="middle" dominant-baseline="text-before-edge"><text x="554" y="49">ThinkPad T495s</text></g><g fill="#BABABA"/><g text-anchor="middle" font-size="10" fill="#065695"><text x="554" y="86">17061.51</text><text x="554" y="102">13135.14</text><text x="554" y="118">12603.11</text><text x="554" y="134">16590.06</text><text x="554" y="150" xlink:title="STD Dev: 15.13%;  STD Error: 322.38">9526.02</text><text x="554" y="166" xlink:title="STD Dev: 21.37%;  STD Error: 1705.02">17842.92</text><text x="554" y="182" xlink:title="STD Dev: 22.21%;  STD Error: 939.99">9464.06</text><text x="554" y="198" xlink:title="STD Dev: 1.95%;  STD Error: 90.95">8070.20</text><text x="554" y="214" xlink:title="STD Dev: 2.17%;  STD Error: 79.20">6308.07</text><text x="554" y="230" xlink:title="STD Dev: 3.42%;  STD Error: 145.08">9490.44</text><text x="554" y="246" xlink:title="STD Dev: 2.78%;  STD Error: 91.68">5713.62</text><text x="554" y="262" xlink:title="STD Dev: 3.31%;  STD Error: 31.12">2484.14</text><text x="554" y="278" xlink:title="STD Dev: 0.38%;  STD Error: 52.71">24093.96</text></g><line x1="321" y1="73" x2="321" y2="281" stroke="#949494" stroke-width="641" stroke-dasharray="1,15"/><rect x="0" y="281" width="641" height="16" fill="#231f20"/><a xlink:href="https://www.phoronix-test-suite.com/" xlink:show="new"><text x="639" y="294" font-size="10" fill="#FFFFFF" text-anchor="end" xlink:show="new">PHORONIX-TEST-SUITE.COM</text></a></svg>
