<?xml version="1.0"?>
<!DOCTYPE svg PUBLIC "-//W3C//DTD SVG 1.1//EN" "http://www.w3.org/Graphics/SVG/1.1/DTD/svg11.dtd">
<!--Phoronix Test Suite v8.6.1 [ http://www.phoronix-test-suite.com/ ]-->
<svg xmlns="http://www.w3.org/2000/svg" xmlns:xlink="http://www.w3.org/1999/xlink" version="1.1" font-family="sans-serif, droid-sans, helvetica, verdana, tahoma" viewbox="0 0 600 149" width="600" height="149" preserveAspectRatio="xMinYMin meet"><rect x="0" y="0" width="600" height="149" fill="#FEFEFE" stroke="#757575" stroke-width="2"/><g stroke="#757575" stroke-width="1"><line x1="205" y1="64" x2="205" y2="111"/><line x1="205" y1="110" x2="586" y2="110"/></g><a xlink:href="https://www.phoronix-test-suite.com/" xlink:show="new"><text x="585" y="59" font-size="8" fill="#065695" text-anchor="end" xlink:show="new">PHORONIX-TEST-SUITE.COM</text></a><polygon points="205,56 214,60.5 214,51.5" fill="#065695" stroke="#949494" stroke-width="1"/><text x="217" y="59" font-size="8" fill="#065695" text-anchor="start">Milliseconds, Less Is Better</text><rect x="0" y="0" width="600" height="48" fill="#231f20"/><text x="6" y="19" font-size="17" fill="#FEFEFE" text-anchor="start" xlink:show="new" font-weight="bold">Counter-Strike: Global Offensive</text><text x="6" y="36" font-size="11" font-weight="bold" fill="#FEFEFE" text-anchor="start">Resolution: 1024 x 768 - Total Frame Time</text><path d="m74 22v9m-5-16v16m-5-28v28m-23-2h12.5c2.485281 0 4.5-2.014719 4.5-4.5s-2.014719-4.5-4.5-4.5h-8c-2.485281 0-4.5-2.014719-4.5-4.5s2.014719-4.5 4.5-4.5h12.5m-21 5h-11m11 13h-2c-4.970563 0-9-4.029437-9-9v-20m-24 40v-20c0-4.970563 4.0294373-9 9-9 4.970563 0 9 4.029437 9 9s-4.029437 9-9 9h-9" stroke="#ffffff" stroke-width="4" fill="none" transform="translate(508,4)"/><g font-size="10" fill="#231f20" font-weight="bold"><text x="200" y="85" text-anchor="end">ThinkPad T495s Steam Gaming</text></g><g font-size="10" fill="#065695" text-anchor="middle"><text x="270" y="125">1100</text><text x="333" y="125">2200</text><text x="396" y="125">3300</text><text x="459" y="125">4400</text><text x="522" y="125">5500</text></g><g stroke="#BABABA" stroke-width="1"><line x1="270" y1="64" x2="270" y2="105" stroke-dasharray="5,5"/><line x1="270" y1="106" x2="270" y2="115"/><line x1="333" y1="64" x2="333" y2="105" stroke-dasharray="5,5"/><line x1="333" y1="106" x2="333" y2="115"/><line x1="396" y1="64" x2="396" y2="105" stroke-dasharray="5,5"/><line x1="396" y1="106" x2="396" y2="115"/><line x1="459" y1="64" x2="459" y2="105" stroke-dasharray="5,5"/><line x1="459" y1="106" x2="459" y2="115"/><line x1="522" y1="64" x2="522" y2="105" stroke-dasharray="5,5"/><line x1="522" y1="106" x2="522" y2="115"/></g><g stroke="#949494" stroke-width="2"><line x1="206" y1="87" x2="208" y2="87"/><line x1="206" y1="70" x2="206" y2="104"/><line x1="208" y1="70" x2="208" y2="104"/></g><g stroke="#949494" stroke-width="1"><rect x="206" y="70" width="1" height="34" fill="#2196f3" xlink:title="Min: 8.44 / Avg: 27.09 / Max: 6293.48"/></g><g stroke="#231f20" stroke-width="1"><line x1="206" y1="70" x2="206" y2="104"/></g><g font-size="8" fill="#065695" text-anchor="end"><text x="200" y="104">Min: 8.44 / Avg: 27.09 / Max: 6293.48</text></g><g fill="#231f20"><circle cx="332" cy="87" r="1"/><circle cx="350" cy="87" r="1"/><circle cx="567" cy="87" r="1"/><circle cx="234" cy="87" r="1"/><circle cx="353" cy="87" r="1"/><circle cx="215" cy="87" r="1"/><circle cx="214" cy="87" r="1"/><circle cx="208" cy="87" r="1"/><circle cx="206" cy="87" r="1"/><circle cx="208" cy="87" r="1"/><circle cx="206" cy="87" r="1"/><circle cx="206" cy="87" r="1"/><circle cx="206" cy="87" r="1"/><circle cx="206" cy="87" r="1"/><circle cx="206" cy="87" r="1"/><circle cx="209" cy="87" r="1"/><circle cx="206" cy="87" r="1"/><circle cx="206" cy="87" r="1"/><circle cx="206" cy="87" r="1"/><circle cx="206" cy="87" r="1"/><circle cx="206" cy="87" r="1"/><circle cx="206" cy="87" r="1"/><circle cx="206" cy="87" r="1"/><circle cx="206" cy="87" r="1"/><circle cx="206" cy="87" r="1"/><circle cx="206" cy="87" r="1"/><circle cx="206" cy="87" r="1"/><circle cx="206" cy="87" r="1"/><circle cx="206" cy="87" r="1"/><circle cx="206" cy="87" r="1"/><circle cx="206" cy="87" r="1"/><circle cx="206" cy="87" r="1"/><circle cx="206" cy="87" r="1"/><circle cx="206" cy="87" r="1"/><circle cx="206" cy="87" r="1"/><circle cx="217" cy="87" r="1"/><circle cx="208" cy="87" r="1"/><circle cx="208" cy="87" r="1"/><circle cx="206" cy="87" r="1"/><circle cx="208" cy="87" r="1"/><circle cx="206" cy="87" r="1"/><circle cx="208" cy="87" r="1"/><circle cx="208" cy="87" r="1"/><circle cx="206" cy="87" r="1"/><circle cx="208" cy="87" r="1"/><circle cx="208" cy="87" r="1"/><circle cx="208" cy="87" r="1"/><circle cx="206" cy="87" r="1"/><circle cx="206" cy="87" r="1"/><circle cx="208" cy="87" r="1"/><circle cx="206" cy="87" r="1"/><circle cx="219" cy="87" r="1"/><circle cx="208" cy="87" r="1"/><circle cx="209" cy="87" r="1"/><circle cx="209" cy="87" r="1"/><circle cx="206" cy="87" r="1"/><circle cx="214" cy="87" r="1"/><circle cx="206" cy="87" r="1"/><circle cx="208" cy="87" r="1"/><circle cx="208" cy="87" r="1"/><circle cx="206" cy="87" r="1"/><circle cx="208" cy="87" r="1"/><circle cx="206" cy="87" r="1"/><circle cx="206" cy="87" r="1"/><circle cx="206" cy="87" r="1"/><circle cx="206" cy="87" r="1"/><circle cx="206" cy="87" r="1"/><circle cx="208" cy="87" r="1"/><circle cx="206" cy="87" r="1"/><circle cx="208" cy="87" r="1"/><circle cx="208" cy="87" r="1"/><circle cx="206" cy="87" r="1"/><circle cx="208" cy="87" r="1"/><circle cx="206" cy="87" r="1"/><circle cx="208" cy="87" r="1"/><circle cx="208" cy="87" r="1"/><circle cx="208" cy="87" r="1"/><circle cx="206" cy="87" r="1"/><circle cx="206" cy="87" r="1"/><circle cx="208" cy="87" r="1"/><circle cx="208" cy="87" r="1"/><circle cx="208" cy="87" r="1"/><circle cx="206" cy="87" r="1"/><circle cx="208" cy="87" r="1"/><circle cx="208" cy="87" r="1"/><circle cx="206" cy="87" r="1"/><circle cx="208" cy="87" r="1"/><circle cx="206" cy="87" r="1"/><circle cx="209" cy="87" r="1"/><circle cx="208" cy="87" r="1"/><circle cx="208" cy="87" r="1"/><circle cx="208" cy="87" r="1"/><circle cx="208" cy="87" r="1"/><circle cx="208" cy="87" r="1"/><circle cx="222" cy="87" r="1"/><circle cx="208" cy="87" r="1"/><circle cx="206" cy="87" r="1"/><circle cx="206" cy="87" r="1"/><circle cx="206" cy="87" r="1"/><circle cx="206" cy="87" r="1"/><circle cx="208" cy="87" r="1"/><circle cx="208" cy="87" r="1"/><circle cx="206" cy="87" r="1"/><circle cx="209" cy="87" r="1"/><circle cx="208" cy="87" r="1"/><circle cx="206" cy="87" r="1"/><circle cx="206" cy="87" r="1"/><circle cx="208" cy="87" r="1"/><circle cx="208" cy="87" r="1"/><circle cx="210" cy="87" r="1"/><circle cx="208" cy="87" r="1"/><circle cx="206" cy="87" r="1"/><circle cx="208" cy="87" r="1"/><circle cx="208" cy="87" r="1"/><circle cx="206" cy="87" r="1"/><circle cx="208" cy="87" r="1"/><circle cx="208" cy="87" r="1"/><circle cx="206" cy="87" r="1"/><circle cx="209" cy="87" r="1"/><circle cx="208" cy="87" r="1"/><circle cx="206" cy="87" r="1"/><circle cx="206" cy="87" r="1"/><circle cx="208" cy="87" r="1"/><circle cx="208" cy="87" r="1"/><circle cx="208" cy="87" r="1"/><circle cx="206" cy="87" r="1"/><circle cx="206" cy="87" r="1"/><circle cx="206" cy="87" r="1"/><circle cx="208" cy="87" r="1"/><circle cx="206" cy="87" r="1"/><circle cx="206" cy="87" r="1"/><circle cx="208" cy="87" r="1"/><circle cx="206" cy="87" r="1"/><circle cx="206" cy="87" r="1"/><circle cx="206" cy="87" r="1"/><circle cx="208" cy="87" r="1"/><circle cx="206" cy="87" r="1"/><circle cx="206" cy="87" r="1"/><circle cx="209" cy="87" r="1"/><circle cx="206" cy="87" r="1"/><circle cx="209" cy="87" r="1"/><circle cx="209" cy="87" r="1"/><circle cx="208" cy="87" r="1"/><circle cx="208" cy="87" r="1"/><circle cx="209" cy="87" r="1"/><circle cx="209" cy="87" r="1"/><circle cx="208" cy="87" r="1"/><circle cx="208" cy="87" r="1"/><circle cx="208" cy="87" r="1"/><circle cx="208" cy="87" r="1"/><circle cx="208" cy="87" r="1"/><circle cx="208" cy="87" r="1"/><circle cx="208" cy="87" r="1"/><circle cx="206" cy="87" r="1"/><circle cx="206" cy="87" r="1"/><circle cx="206" cy="87" r="1"/><circle cx="209" cy="87" r="1"/><circle cx="206" cy="87" r="1"/><circle cx="206" cy="87" r="1"/><circle cx="206" cy="87" r="1"/><circle cx="206" cy="87" r="1"/><circle cx="206" cy="87" r="1"/><circle cx="206" cy="87" r="1"/><circle cx="206" cy="87" r="1"/><circle cx="206" cy="87" r="1"/><circle cx="206" cy="87" r="1"/><circle cx="206" cy="87" r="1"/><circle cx="206" cy="87" r="1"/><circle cx="206" cy="87" r="1"/><circle cx="206" cy="87" r="1"/><circle cx="206" cy="87" r="1"/><circle cx="206" cy="87" r="1"/><circle cx="206" cy="87" r="1"/><circle cx="206" cy="87" r="1"/><circle cx="206" cy="87" r="1"/><circle cx="206" cy="87" r="1"/><circle cx="206" cy="87" r="1"/><circle cx="206" cy="87" r="1"/><circle cx="206" cy="87" r="1"/><circle cx="206" cy="87" r="1"/><circle cx="206" cy="87" r="1"/><circle cx="206" cy="87" r="1"/><circle cx="206" cy="87" r="1"/><circle cx="206" cy="87" r="1"/><circle cx="206" cy="87" r="1"/><circle cx="206" cy="87" r="1"/><circle cx="206" cy="87" r="1"/><circle cx="206" cy="87" r="1"/><circle cx="206" cy="87" r="1"/><circle cx="205" cy="87" r="1"/><circle cx="206" cy="87" r="1"/><circle cx="206" cy="87" r="1"/><circle cx="208" cy="87" r="1"/><circle cx="208" cy="87" r="1"/><circle cx="208" cy="87" r="1"/><circle cx="208" cy="87" r="1"/><circle cx="208" cy="87" r="1"/><circle cx="208" cy="87" r="1"/><circle cx="209" cy="87" r="1"/><circle cx="209" cy="87" r="1"/><circle cx="208" cy="87" r="1"/><circle cx="208" cy="87" r="1"/><circle cx="208" cy="87" r="1"/><circle cx="208" cy="87" r="1"/><circle cx="208" cy="87" r="1"/><circle cx="209" cy="87" r="1"/><circle cx="208" cy="87" r="1"/><circle cx="208" cy="87" r="1"/><circle cx="208" cy="87" r="1"/><circle cx="208" cy="87" r="1"/><circle cx="208" cy="87" r="1"/><circle cx="208" cy="87" r="1"/><circle cx="208" cy="87" r="1"/><circle cx="208" cy="87" r="1"/><circle cx="208" cy="87" r="1"/><circle cx="208" cy="87" r="1"/><circle cx="209" cy="87" r="1"/></g><line x1="205" y1="110" x2="585" y2="110" stroke="#757575" stroke-width="1"/><rect x="0" y="132" width="600" height="17" fill="#231f20"/><a xlink:href="https://www.phoronix-test-suite.com/" xlink:show="new"><text x="585" y="144" font-size="9" fill="#FEFEFE" text-anchor="end" xlink:show="new">Phoronix Test Suite 8.6.1</text></a></svg>
