<?xml version="1.0"?>
<!DOCTYPE svg PUBLIC "-//W3C//DTD SVG 1.1//EN" "http://www.w3.org/Graphics/SVG/1.1/DTD/svg11.dtd">
<!--Phoronix Test Suite v8.6.1 [ http://www.phoronix-test-suite.com/ ]-->
<svg xmlns="http://www.w3.org/2000/svg" xmlns:xlink="http://www.w3.org/1999/xlink" version="1.1" font-family="sans-serif, droid-sans, helvetica, verdana, tahoma" viewbox="0 0 600 149" width="600" height="149" preserveAspectRatio="xMinYMin meet"><rect x="0" y="0" width="600" height="149" fill="#FEFEFE" stroke="#757575" stroke-width="2"/><g stroke="#757575" stroke-width="1"><line x1="162" y1="64" x2="162" y2="111"/><line x1="162" y1="110" x2="586" y2="110"/></g><a xlink:href="https://www.phoronix-test-suite.com/" xlink:show="new"><text x="585" y="59" font-size="8" fill="#065695" text-anchor="end" xlink:show="new">PHORONIX-TEST-SUITE.COM</text></a><polygon points="171,56 162,60.5 162,51.5" fill="#065695" stroke="#949494" stroke-width="1"/><text x="174" y="59" font-size="8" fill="#065695" text-anchor="start">Frames Per Second, More Is Better</text><rect x="0" y="0" width="600" height="48" fill="#231f20"/><a xlink:href="https://openbenchmarking.org/test/pts/unigine-heaven-1.6.4" xlink:show="new"><text x="6" y="19" font-size="17" fill="#FEFEFE" text-anchor="start" xlink:show="new" font-weight="bold">Unigine Heaven v4.0</text></a><text x="6" y="36" font-size="11" font-weight="bold" fill="#FEFEFE" text-anchor="start">Resolution: 1920 x 1080 - Mode: Fullscreen - Renderer: OpenGL</text><path d="m74 22v9m-5-16v16m-5-28v28m-23-2h12.5c2.485281 0 4.5-2.014719 4.5-4.5s-2.014719-4.5-4.5-4.5h-8c-2.485281 0-4.5-2.014719-4.5-4.5s2.014719-4.5 4.5-4.5h12.5m-21 5h-11m11 13h-2c-4.970563 0-9-4.029437-9-9v-20m-24 40v-20c0-4.970563 4.0294373-9 9-9 4.970563 0 9 4.029437 9 9s-4.029437 9-9 9h-9" stroke="#ffffff" stroke-width="4" fill="none" transform="translate(508,4)"/><g font-size="10" fill="#231f20" font-weight="bold"><text x="157" y="85" text-anchor="end">ThinkPad T495s</text></g><g font-size="10" fill="#065695" text-anchor="middle"><text x="235" y="125">2</text><text x="306" y="125">4</text><text x="377" y="125">6</text><text x="448" y="125">8</text><text x="519" y="125">10</text></g><g stroke="#BABABA" stroke-width="1"><line x1="235" y1="64" x2="235" y2="105" stroke-dasharray="5,5"/><line x1="235" y1="106" x2="235" y2="115"/><line x1="306" y1="64" x2="306" y2="105" stroke-dasharray="5,5"/><line x1="306" y1="106" x2="306" y2="115"/><line x1="377" y1="64" x2="377" y2="105" stroke-dasharray="5,5"/><line x1="377" y1="106" x2="377" y2="115"/><line x1="448" y1="64" x2="448" y2="105" stroke-dasharray="5,5"/><line x1="448" y1="106" x2="448" y2="115"/><line x1="519" y1="64" x2="519" y2="105" stroke-dasharray="5,5"/><line x1="519" y1="106" x2="519" y2="115"/></g><g stroke="#949494" stroke-width="1"><rect x="162" y="70" height="34" width="213" fill="#2196f3" xlink:title="ThinkPad T495s: 6.05"/></g><g font-size="8" fill="#065695" text-anchor="end"><text y="101" x="157">SE +/- 0.04</text></g><g font-size="10" fill="#FFFFFF" font-weight="bold" text-anchor="end"><text x="370" y="93">6.05</text></g><rect x="0" y="132" width="600" height="17" fill="#231f20"/><a xlink:href="https://www.phoronix-test-suite.com/" xlink:show="new"><text x="585" y="144" font-size="9" fill="#FEFEFE" text-anchor="end" xlink:show="new">Phoronix Test Suite 8.6.1</text></a></svg>
