<svg xmlns="http://www.w3.org/2000/svg" xmlns:xlink="http://www.w3.org/1999/xlink" version="1.1" font-family="sans-serif, droid-sans, helvetica, verdana, tahoma" viewbox="0 0 701 361" width="701" height="361" preserveAspectRatio="xMinYMin meet"><rect x="0" y="0" width="701" height="361" fill="#FEFEFE" stroke="#757575" stroke-width="2"/><rect x="1" y="1" width="700" height="360" fill="#FEFEFE" stroke="#757575" stroke-width="1"/><path d="m74 22v9m-5-16v16m-5-28v28m-23-2h12.5c2.485281 0 4.5-2.014719 4.5-4.5s-2.014719-4.5-4.5-4.5h-8c-2.485281 0-4.5-2.014719-4.5-4.5s2.014719-4.5 4.5-4.5h12.5m-21 5h-11m11 13h-2c-4.970563 0-9-4.029437-9-9v-20m-24 40v-20c0-4.970563 4.0294373-9 9-9 4.970563 0 9 4.029437 9 9s-4.029437 9-9 9h-9" stroke="#000000" stroke-width="4" fill="none" transform="translate(237,28)"/><line x1="553" y1="185" x2="701" y2="185" stroke="#BABABA" stroke-width="320" stroke-dasharray="148,148"/><line x1="351" y1="73" x2="351" y2="345" stroke="#949494" stroke-width="701" stroke-dasharray="16,16"/><line x1="553" y1="185" x2="701" y2="185" stroke="#757575" stroke-width="320" stroke-dasharray="1,147"/><rect x="1" y="1" width="699" height="25" fill="#231f20"/><text x="5" y="19" font-size="17" fill="#FEFEFE" text-anchor="start">T495s NVMe Benchmarks</text><line x1="1" y1="25" x2="700" y2="25" stroke="#757575" stroke-width="1"/><g font-size="10" font-weight="bold" fill="#065695" text-anchor="end"><a xlink:href="https://openbenchmarking.org/test/pts/fio-1.11.5" xlink:show="new"><text x="551" y="85">fio: Random Read - Sync - Yes - No - 8MB - Default Test Directory</text></a><a xlink:href="https://openbenchmarking.org/test/pts/fio-1.11.5" xlink:show="new"><text x="551" y="101">fio: Random Write - Sync - Yes - No - 8MB - Default Test Directory</text></a><a xlink:href="https://openbenchmarking.org/test/pts/fio-1.11.5" xlink:show="new"><text x="551" y="117">fio: Sequential Read - Sync - Yes - No - 8MB - Default Test Directory</text></a><a xlink:href="https://openbenchmarking.org/test/pts/fio-1.11.5" xlink:show="new"><text x="551" y="133">fio: Random Read - Linux AIO - Yes - No - 8MB - Default Test Directory</text></a><a xlink:href="https://openbenchmarking.org/test/pts/fio-1.11.5" xlink:show="new"><text x="551" y="149">fio: Sequential Write - Sync - Yes - No - 8MB - Default Test Directory</text></a><a xlink:href="https://openbenchmarking.org/test/pts/fio-1.11.5" xlink:show="new"><text x="551" y="165">fio: Random Write - Linux AIO - Yes - No - 8MB - Default Test Directory</text></a><a xlink:href="https://openbenchmarking.org/test/pts/fio-1.11.5" xlink:show="new"><text x="551" y="181">fio: Sequential Read - Linux AIO - Yes - No - 8MB - Default Test Directory</text></a><a xlink:href="https://openbenchmarking.org/test/pts/fio-1.11.5" xlink:show="new"><text x="551" y="197">fio: Sequential Write - Linux AIO - Yes - No - 8MB - Default Test Directory</text></a><a xlink:href="https://openbenchmarking.org/test/pts/iozone-1.9.5" xlink:show="new"><text x="551" y="213">iozone: 1MB - 512MB - Read Performance</text></a><a xlink:href="https://openbenchmarking.org/test/pts/iozone-1.9.5" xlink:show="new"><text x="551" y="229">iozone: 4Kb - 512MB - Read Performance</text></a><a xlink:href="https://openbenchmarking.org/test/pts/iozone-1.9.5" xlink:show="new"><text x="551" y="245">iozone: 1MB - 512MB - Write Performance</text></a><a xlink:href="https://openbenchmarking.org/test/pts/iozone-1.9.5" xlink:show="new"><text x="551" y="261">iozone: 4Kb - 512MB - Write Performance</text></a><a xlink:href="https://openbenchmarking.org/test/pts/iozone-1.9.5" xlink:show="new"><text x="551" y="277">iozone: 64Kb - 512MB - Read Performance</text></a><a xlink:href="https://openbenchmarking.org/test/pts/iozone-1.9.5" xlink:show="new"><text x="551" y="293">iozone: 64Kb - 512MB - Write Performance</text></a><a xlink:href="https://openbenchmarking.org/test/pts/compilebench-1.0.2" xlink:show="new"><text x="551" y="309">compilebench: Compile</text></a><a xlink:href="https://openbenchmarking.org/test/pts/compilebench-1.0.2" xlink:show="new"><text x="551" y="325">compilebench: Initial Create</text></a><a xlink:href="https://openbenchmarking.org/test/pts/compilebench-1.0.2" xlink:show="new"><text x="551" y="341">compilebench: Read Compiled Tree</text></a></g><g font-size="10" fill="#065695" font-weight="bold" text-anchor="middle" dominant-baseline="text-before-edge"><text x="627" y="49">ThinkPad T495s Disk</text></g><g fill="#BABABA"/><g text-anchor="middle" font-size="10" fill="#065695"><text x="627" y="86" xlink:title="STD Dev: 3.50%;  STD Error: 76.16" fill="#C80000">4868</text><text x="627" y="102" xlink:title="STD Dev: 2.68%;  STD Error: 46.66" fill="#C80000">3020</text><text x="627" y="118" xlink:title="STD Dev: 1.28%;  STD Error: 35.30" fill="#C80000">4790</text><text x="627" y="134" xlink:title="STD Dev: 3.49%;  STD Error: 57.61" fill="#C80000">4949</text><text x="627" y="150" xlink:title="STD Dev: 3.36%;  STD Error: 24.75">2556</text><text x="627" y="166" xlink:title="STD Dev: 2.75%;  STD Error: 47.27">2978</text><text x="627" y="182" xlink:title="STD Dev: 1.28%;  STD Error: 35.57">4798</text><text x="627" y="198" xlink:title="STD Dev: 2.83%;  STD Error: 41.56">2547</text><text x="627" y="214" xlink:title="STD Dev: 7.39%;  STD Error: 193.90">9093</text><text x="627" y="230" xlink:title="STD Dev: 0.56%;  STD Error: 20.87">6414</text><text x="627" y="246" xlink:title="STD Dev: 14.80%;  STD Error: 32.27">755</text><text x="627" y="262" xlink:title="STD Dev: 2.55%;  STD Error: 11.72">797</text><text x="627" y="278" xlink:title="STD Dev: 0.75%;  STD Error: 38.94">9001</text><text x="627" y="294" xlink:title="STD Dev: 7.80%;  STD Error: 20.15">775</text><text x="627" y="310" xlink:title="STD Dev: 4.70%;  STD Error: 7.75">571</text><text x="627" y="326" xlink:title="STD Dev: 6.71%;  STD Error: 7.78">201.00</text><text x="627" y="342" xlink:title="STD Dev: 18.81%;  STD Error: 116.57">1073.45</text></g><line x1="351" y1="73" x2="351" y2="345" stroke="#949494" stroke-width="701" stroke-dasharray="1,15"/><rect x="0" y="345" width="701" height="16" fill="#231f20"/><a xlink:href="https://www.openbenchmarking.org/" xlink:show="new"><text x="699" y="358" font-size="10" fill="#FFFFFF" text-anchor="end" xlink:show="new">OpenBenchmarking.org</text></a></svg>
