<?xml version="1.0"?>
<!DOCTYPE svg PUBLIC "-//W3C//DTD SVG 1.1//EN" "http://www.w3.org/Graphics/SVG/1.1/DTD/svg11.dtd">
<!--Phoronix Test Suite v8.6.1 [ http://www.phoronix-test-suite.com/ ]-->
<svg xmlns="http://www.w3.org/2000/svg" xmlns:xlink="http://www.w3.org/1999/xlink" version="1.1" font-family="sans-serif, droid-sans, helvetica, verdana, tahoma" viewbox="0 0 600 149" width="600" height="149" preserveAspectRatio="xMinYMin meet"><rect x="0" y="0" width="600" height="149" fill="#FEFEFE" stroke="#757575" stroke-width="2"/><g stroke="#757575" stroke-width="1"><line x1="177" y1="64" x2="177" y2="111"/><line x1="177" y1="110" x2="586" y2="110"/></g><a xlink:href="https://www.phoronix-test-suite.com/" xlink:show="new"><text x="585" y="59" font-size="8" fill="#065695" text-anchor="end" xlink:show="new">PHORONIX-TEST-SUITE.COM</text></a><polygon points="177,56 186,60.5 186,51.5" fill="#065695" stroke="#949494" stroke-width="1"/><text x="189" y="59" font-size="8" fill="#065695" text-anchor="start">Milliseconds, Less Is Better</text><rect x="0" y="0" width="600" height="48" fill="#231f20"/><text x="6" y="19" font-size="17" fill="#FEFEFE" text-anchor="start" xlink:show="new" font-weight="bold">OpenArena v0.8.8</text><text x="6" y="36" font-size="11" font-weight="bold" fill="#FEFEFE" text-anchor="start">Resolution: 1024 x 768 - Total Frame Time</text><path d="m74 22v9m-5-16v16m-5-28v28m-23-2h12.5c2.485281 0 4.5-2.014719 4.5-4.5s-2.014719-4.5-4.5-4.5h-8c-2.485281 0-4.5-2.014719-4.5-4.5s2.014719-4.5 4.5-4.5h12.5m-21 5h-11m11 13h-2c-4.970563 0-9-4.029437-9-9v-20m-24 40v-20c0-4.970563 4.0294373-9 9-9 4.970563 0 9 4.029437 9 9s-4.029437 9-9 9h-9" stroke="#ffffff" stroke-width="4" fill="none" transform="translate(508,4)"/><g font-size="10" fill="#231f20" font-weight="bold"><text x="172" y="85" text-anchor="end">ThinkPad T495s</text></g><g font-size="10" fill="#065695" text-anchor="middle"><text x="247" y="125">6</text><text x="315" y="125">12</text><text x="383" y="125">18</text><text x="451" y="125">24</text><text x="519" y="125">30</text></g><g stroke="#BABABA" stroke-width="1"><line x1="247" y1="64" x2="247" y2="105" stroke-dasharray="5,5"/><line x1="247" y1="106" x2="247" y2="115"/><line x1="315" y1="64" x2="315" y2="105" stroke-dasharray="5,5"/><line x1="315" y1="106" x2="315" y2="115"/><line x1="383" y1="64" x2="383" y2="105" stroke-dasharray="5,5"/><line x1="383" y1="106" x2="383" y2="115"/><line x1="451" y1="64" x2="451" y2="105" stroke-dasharray="5,5"/><line x1="451" y1="106" x2="451" y2="115"/><line x1="519" y1="64" x2="519" y2="105" stroke-dasharray="5,5"/><line x1="519" y1="106" x2="519" y2="115"/></g><g stroke="#949494" stroke-width="2"><line x1="211" y1="87" x2="302" y2="87"/><line x1="211" y1="70" x2="211" y2="104"/><line x1="302" y1="70" x2="302" y2="104"/></g><g stroke="#949494" stroke-width="1"><rect x="234" y="70" width="22" height="34" fill="#2196f3" xlink:title="Min: 1 / Avg: 6.3 / Max: 26"/></g><g stroke="#231f20" stroke-width="1"><line x1="245" y1="70" x2="245" y2="104"/></g><g font-size="8" fill="#065695" text-anchor="end"><text x="172" y="104">Min: 1 / Avg: 6.3 / Max: 26</text></g><g fill="#231f20"><circle cx="188" cy="87" r="1"/><circle cx="472" cy="87" r="1"/><circle cx="324" cy="87" r="1"/><circle cx="313" cy="87" r="1"/><circle cx="336" cy="87" r="1"/><circle cx="200" cy="87" r="1"/></g><line x1="177" y1="110" x2="585" y2="110" stroke="#757575" stroke-width="1"/><rect x="0" y="132" width="600" height="17" fill="#231f20"/><a xlink:href="https://www.phoronix-test-suite.com/" xlink:show="new"><text x="585" y="144" font-size="9" fill="#FEFEFE" text-anchor="end" xlink:show="new">Phoronix Test Suite 8.6.1</text></a></svg>
