<?xml version="1.0"?>
<!DOCTYPE svg PUBLIC "-//W3C//DTD SVG 1.1//EN" "http://www.w3.org/Graphics/SVG/1.1/DTD/svg11.dtd">
<!--Phoronix Test Suite v8.6.1 [ http://www.phoronix-test-suite.com/ ]-->
<svg xmlns="http://www.w3.org/2000/svg" xmlns:xlink="http://www.w3.org/1999/xlink" version="1.1" font-family="sans-serif, droid-sans, helvetica, verdana, tahoma" viewbox="0 0 627 297" width="627" height="297" preserveAspectRatio="xMinYMin meet"><rect x="0" y="0" width="627" height="297" fill="#FEFEFE" stroke="#757575" stroke-width="2"/><rect x="1" y="1" width="626" height="296" fill="#FEFEFE" stroke="#757575" stroke-width="1"/><path d="m74 22v9m-5-16v16m-5-28v28m-23-2h12.5c2.485281 0 4.5-2.014719 4.5-4.5s-2.014719-4.5-4.5-4.5h-8c-2.485281 0-4.5-2.014719-4.5-4.5s2.014719-4.5 4.5-4.5h12.5m-21 5h-11m11 13h-2c-4.970563 0-9-4.029437-9-9v-20m-24 40v-20c0-4.970563 4.0294373-9 9-9 4.970563 0 9 4.029437 9 9s-4.029437 9-9 9h-9" stroke="#000000" stroke-width="4" fill="none" transform="translate(193,28)"/><line x1="466" y1="153" x2="627" y2="153" stroke="#BABABA" stroke-width="256" stroke-dasharray="161,161"/><line x1="314" y1="73" x2="314" y2="281" stroke="#949494" stroke-width="627" stroke-dasharray="16,16"/><line x1="466" y1="153" x2="627" y2="153" stroke="#757575" stroke-width="256" stroke-dasharray="1,160"/><rect x="1" y="1" width="625" height="25" fill="#231f20"/><text x="5" y="19" font-size="17" fill="#FEFEFE" text-anchor="start">ThinkPad T495s Memory</text><line x1="1" y1="25" x2="626" y2="25" stroke="#757575" stroke-width="1"/><g font-size="10" font-weight="bold" fill="#065695" text-anchor="end"><a xlink:href="https://openbenchmarking.org/test/pts/ramspeed-1.4.2" xlink:show="new"><text x="464" y="85">ramspeed: Integer Add</text></a><a xlink:href="https://openbenchmarking.org/test/pts/ramspeed-1.4.2" xlink:show="new"><text x="464" y="101">ramspeed: Integer Copy</text></a><a xlink:href="https://openbenchmarking.org/test/pts/ramspeed-1.4.2" xlink:show="new"><text x="464" y="117">ramspeed: Integer Scale</text></a><a xlink:href="https://openbenchmarking.org/test/pts/ramspeed-1.4.2" xlink:show="new"><text x="464" y="133">ramspeed: Floating-Point Add</text></a><a xlink:href="https://openbenchmarking.org/test/pts/stream-1.3.1" xlink:show="new"><text x="464" y="149">stream: Add</text></a><a xlink:href="https://openbenchmarking.org/test/pts/stream-1.3.1" xlink:show="new"><text x="464" y="165">stream: Copy</text></a><a xlink:href="https://openbenchmarking.org/test/pts/stream-1.3.1" xlink:show="new"><text x="464" y="181">stream: Scale</text></a><a xlink:href="https://openbenchmarking.org/test/pts/tinymembench-1.0.2" xlink:show="new"><text x="464" y="197">tinymembench: Standard Memcpy</text></a><a xlink:href="https://openbenchmarking.org/test/pts/tinymembench-1.0.2" xlink:show="new"><text x="464" y="213">tinymembench: Standard Memset</text></a><a xlink:href="https://openbenchmarking.org/test/pts/mbw-1.0.0" xlink:show="new"><text x="464" y="229">mbw: Test: Memory Copy - Array Size: 1024 MiB</text></a><a xlink:href="https://openbenchmarking.org/test/pts/mbw-1.0.0" xlink:show="new"><text x="464" y="245">mbw: Test: Memory Copy, Fixed Block Size - Array Size: 1024 MiB</text></a><a xlink:href="https://openbenchmarking.org/test/pts/cachebench-1.1.2" xlink:show="new"><text x="464" y="261">cachebench: Read Cache</text></a><a xlink:href="https://openbenchmarking.org/test/pts/cachebench-1.1.2" xlink:show="new"><text x="464" y="277">cachebench: Write Cache</text></a></g><g font-size="10" fill="#065695" font-weight="bold" text-anchor="middle" dominant-baseline="text-before-edge"><text x="547" y="49">ThinkPad T495s Memory</text></g><g fill="#BABABA"/><g text-anchor="middle" font-size="10" fill="#065695"><text x="547" y="86">15411</text><text x="547" y="102">12787</text><text x="547" y="118">12346</text><text x="547" y="134">15487</text><text x="547" y="150" xlink:title="STD Dev: 0.17%;  STD Error: 10.65">13811</text><text x="547" y="166" xlink:title="STD Dev: 0.63%;  STD Error: 64.18">22719</text><text x="547" y="182" xlink:title="STD Dev: 0.30%;  STD Error: 15.74">11764</text><text x="547" y="198" xlink:title="STD Dev: 0.78%;  STD Error: 50.95">11358</text><text x="547" y="214" xlink:title="STD Dev: 0.29%;  STD Error: 12.19">7401.23</text><text x="547" y="230" xlink:title="STD Dev: 0.79%;  STD Error: 51.47">11240</text><text x="547" y="246" xlink:title="STD Dev: 0.52%;  STD Error: 18.67">6207</text><text x="547" y="262" xlink:title="STD Dev: 0.08%;  STD Error: 1.18">2519</text><text x="547" y="278" xlink:title="STD Dev: 0.15%;  STD Error: 21.44">23969</text></g><line x1="314" y1="73" x2="314" y2="281" stroke="#949494" stroke-width="627" stroke-dasharray="1,15"/><rect x="0" y="281" width="627" height="16" fill="#231f20"/><a xlink:href="https://www.phoronix-test-suite.com/" xlink:show="new"><text x="625" y="294" font-size="10" fill="#FFFFFF" text-anchor="end" xlink:show="new">PHORONIX-TEST-SUITE.COM</text></a></svg>
