<?xml version="1.0" standalone="no"?>
<!DOCTYPE svg PUBLIC "-//W3C//DTD SVG 20010904//EN"
 "http://www.w3.org/TR/2001/REC-SVG-20010904/DTD/svg10.dtd">
<svg version="1.0" xmlns="http://www.w3.org/2000/svg"
 width="206.000000pt" height="206.000000pt" viewBox="0 0 206.000000 206.000000"
 preserveAspectRatio="xMidYMid meet">
<metadata>
Created by potrace 1.11, written by Peter Selinger 2001-2013
</metadata>
<g transform="translate(0.000000,206.000000) scale(0.100000,-0.100000)"
fill="#000000" stroke="none">
<path d="M296 1935 c-38 -25 -71 -45 -74 -45 -13 0 -117 -86 -167 -138 l-55
-57 0 -74 c0 -79 12 -100 56 -101 22 0 194 -159 194 -178 0 -21 -25 -67 -63
-119 -25 -33 -40 -64 -40 -85 -2 -30 1 -33 31 -36 19 -2 48 1 65 7 23 8 33 8
38 0 11 -19 39 -2 39 24 0 17 9 27 35 37 38 15 57 52 36 73 -17 17 -13 27 9
27 26 0 37 27 22 51 -17 26 -15 31 9 24 15 -5 22 -2 26 14 3 12 9 21 13 21 5
0 13 13 18 29 7 21 25 36 65 55 89 42 146 31 71 -13 -23 -14 -34 -27 -32 -39
2 -9 -3 -22 -11 -28 -19 -15 -4 -36 20 -29 24 8 38 -22 18 -37 -11 -8 -10 -9
4 -4 12 4 20 0 23 -12 3 -9 10 -25 15 -35 6 -11 9 -20 7 -21 -2 0 -17 -11 -34
-23 l-31 -21 -1 28 c0 16 -9 39 -20 52 -76 89 -69 84 -87 67 -16 -16 -15 -18
14 -35 20 -12 31 -26 31 -40 0 -24 -40 -56 -80 -64 -20 -4 -24 -11 -25 -43 -2
-43 -8 -51 -38 -52 -15 0 -23 -7 -25 -23 -3 -19 1 -22 27 -22 21 0 31 6 36 21
6 17 12 20 39 15 37 -7 51 1 35 21 -9 10 -15 10 -25 2 -14 -11 -34 -5 -34 12
0 5 9 9 20 9 11 0 20 7 20 15 0 8 4 15 9 15 5 0 14 -7 21 -15 7 -8 19 -15 26
-15 17 0 18 -12 3 -27 -8 -8 -8 -13 0 -18 6 -3 14 1 17 9 3 9 12 16 20 16 8 0
14 5 14 10 0 6 9 10 20 10 23 0 27 -15 5 -24 -22 -8 -18 -26 5 -26 11 0 20 5
20 10 0 6 7 10 16 10 28 0 11 -35 -19 -38 -15 -2 -27 -9 -27 -18 0 -17 -12
-18 -28 -2 -8 8 -14 5 -22 -17 -10 -26 -12 -27 -29 -11 -16 15 -19 14 -41 -9
-20 -21 -21 -27 -9 -41 7 -9 12 -31 11 -49 -4 -39 24 -57 45 -29 12 16 13 15
13 -8 0 -14 7 -31 15 -38 13 -11 17 -8 26 19 7 20 18 31 30 31 22 0 24 11 7
28 -9 9 -8 12 5 12 12 0 17 8 17 30 0 26 4 30 28 30 25 -1 26 -2 9 -14 -12 -9
-17 -24 -15 -42 4 -34 24 -43 33 -14 5 15 12 19 25 15 25 -8 37 15 16 31 -20
14 -12 38 10 30 7 -3 20 2 29 10 13 14 15 13 15 -10 0 -19 5 -26 19 -26 11 0
23 5 27 11 3 6 20 19 37 29 28 17 32 18 42 3 13 -18 35 -10 35 13 0 19 38 56
51 48 6 -3 24 0 40 6 23 10 27 15 18 26 -13 16 -55 19 -64 4 -4 -6 -15 -8 -25
-5 -13 4 -20 0 -25 -15 -5 -15 -14 -20 -28 -18 -18 2 -23 11 -25 45 -3 37 0
43 27 59 17 10 31 24 31 30 0 7 8 26 17 42 15 26 15 34 3 71 -17 54 -31 64
-103 77 -55 10 -60 10 -64 -7 -8 -27 -23 -23 -23 6 0 16 11 32 30 47 16 12 32
30 36 40 3 10 14 18 25 18 23 0 25 -16 3 -28 -15 -8 -15 -11 5 -31 22 -22 56
-28 66 -11 10 17 35 11 35 -7 1 -17 1 -17 11 0 5 9 20 17 33 17 13 0 30 10 39
23 l15 22 44 -47 c44 -48 61 -57 73 -38 3 6 17 10 31 10 21 0 24 -4 19 -20 -5
-15 -2 -20 10 -20 9 0 19 9 22 20 3 12 18 23 35 28 43 11 34 27 -15 27 -26 1
-57 10 -78 23 -38 23 -138 41 -234 42 -37 0 -68 6 -79 15 -26 20 -44 19 -86
-3 -19 -10 -43 -16 -53 -14 -17 3 -16 6 6 35 27 37 39 84 26 108 -7 15 -14 15
-61 4 -29 -7 -70 -22 -90 -34 l-37 -23 -24 26 c-37 40 -117 162 -153 234 -34
68 -60 102 -79 102 -6 0 -42 -20 -79 -45z m374 -395 c0 -5 -9 -10 -20 -10 -11
0 -20 5 -20 10 0 6 9 10 20 10 11 0 20 -4 20 -10z m40 -57 c-1 -18 -18 -35
-24 -24 -4 6 -4 16 -1 21 7 12 25 13 25 3z m50 -3 c0 -5 -4 -10 -10 -10 -5 0
-10 5 -10 10 0 6 5 10 10 10 6 0 10 -4 10 -10z m50 -140 c0 -5 -4 -10 -10 -10
-5 0 -10 -7 -10 -17 0 -9 -3 -14 -6 -10 -8 8 5 47 17 47 5 0 9 -4 9 -10z
m-113 -62 c-3 -8 -6 -5 -6 6 -1 11 2 17 5 13 3 -3 4 -12 1 -19z m136 -4 c-17
-8 -34 -18 -38 -24 -8 -13 -35 -13 -35 1 0 22 42 45 74 40 l31 -4 -32 -13z
m-88 -24 c9 -15 -16 -43 -27 -32 -10 10 0 42 12 42 5 0 12 -5 15 -10z m59 -82
c-3 -5 -9 -8 -13 -8 -10 0 -21 37 -13 44 7 8 31 -27 26 -36z m101 32 c3 -5 1
-10 -4 -10 -6 0 -11 5 -11 10 0 6 2 10 4 10 3 0 8 -4 11 -10z m-595 -30 c0 -5
-2 -10 -4 -10 -3 0 -8 5 -11 10 -3 6 -1 10 4 10 6 0 11 -4 11 -10z m451 -33
c-1 -8 -1 -8 -31 0 -11 3 -17 9 -15 14 6 9 47 -3 46 -14z m114 13 c3 -5 1 -10
-4 -10 -6 0 -11 5 -11 10 0 6 2 10 4 10 3 0 8 -4 11 -10z m-87 -82 c-13 -10
-31 -18 -40 -18 -14 0 -15 4 -7 29 10 27 12 28 40 18 l29 -12 -22 -17z m-148
-38 c0 -5 -4 -10 -10 -10 -5 0 -10 5 -10 10 0 6 5 10 10 10 6 0 10 -4 10 -10z
m-76 -61 c-3 -5 -10 -7 -15 -3 -5 3 -7 10 -3 15 3 5 10 7 15 3 5 -3 7 -10 3
-15z m56 6 c0 -8 -4 -15 -10 -15 -5 0 -10 7 -10 15 0 8 5 15 10 15 6 0 10 -7
10 -15z"/>
<path d="M1536 1541 c-3 -4 -19 -11 -36 -14 -36 -8 -40 -27 -6 -27 13 0 29 -7
36 -15 14 -16 60 -21 60 -5 0 5 -8 13 -17 19 -10 5 -15 13 -11 17 12 12 161
14 175 2 20 -16 6 -28 -33 -28 -42 0 -44 -14 -4 -29 20 -7 30 -17 30 -30 0
-25 -15 -27 -28 -5 -10 18 -43 16 -50 -4 -2 -7 5 -16 17 -19 23 -6 29 -41 9
-61 -17 -17 -55 -15 -62 3 -3 8 -12 15 -21 15 -8 0 -24 6 -35 13 -17 10 -22 9
-30 -3 -5 -8 -10 -25 -10 -37 0 -24 -14 -31 -25 -13 -9 15 -35 12 -35 -4 0 -7
9 -16 19 -19 12 -3 21 -15 23 -33 4 -40 30 -37 39 4 9 46 27 63 40 39 8 -14
18 -16 44 -11 36 6 55 -9 29 -24 -13 -7 -14 -13 -5 -31 10 -18 9 -21 -8 -21
-10 0 -21 7 -25 15 -8 22 -44 18 -58 -5 -7 -11 -20 -20 -30 -20 -9 0 -18 -6
-21 -12 -2 -7 -17 -13 -33 -13 -25 0 -29 -4 -32 -32 -2 -23 1 -32 15 -36 14
-4 13 -5 -4 -6 -16 -1 -23 5 -23 18 0 10 -7 24 -15 31 -22 18 -69 -3 -61 -28
3 -9 1 -24 -4 -32 -7 -11 -10 -7 -10 18 0 37 -23 44 -40 13 -5 -11 -19 -23
-30 -26 -11 -3 -20 -13 -20 -21 0 -17 51 -19 68 -2 9 9 12 8 12 -5 0 -10 -8
-20 -17 -23 -10 -4 -32 -12 -50 -20 -17 -8 -46 -14 -65 -14 -18 0 -42 -7 -52
-15 -26 -19 -62 -19 -70 0 -3 8 -14 15 -25 15 -11 0 -24 8 -30 18 -8 14 -12
15 -23 4 -11 -11 -10 -16 6 -27 18 -14 18 -15 -8 -24 -14 -6 -26 -15 -26 -21
0 -5 -16 -10 -35 -10 -19 0 -35 -5 -35 -11 0 -5 -5 -7 -10 -4 -13 8 -50 -4
-50 -16 0 -5 -9 -19 -19 -30 l-19 -21 -23 31 c-23 31 -39 33 -39 4 0 -25 -71
-83 -102 -83 -17 0 -33 -8 -40 -20 -7 -11 -20 -20 -29 -20 -8 0 -25 -11 -37
-25 -12 -14 -29 -25 -37 -25 -8 0 -15 -6 -15 -14 0 -7 -9 -25 -20 -39 -15 -19
-20 -38 -18 -69 3 -37 0 -43 -17 -43 -15 0 -21 8 -25 34 -7 45 -47 63 -56 26
-6 -24 -24 -35 -24 -15 0 6 -9 10 -20 10 -13 0 -20 -7 -20 -20 0 -10 -7 -23
-15 -27 -13 -7 -13 -12 1 -37 10 -20 11 -33 4 -40 -12 -12 -14 -46 -2 -46 4 0
22 9 40 20 18 11 37 20 42 20 19 0 10 -30 -14 -46 -40 -26 -42 -64 -5 -118 34
-51 34 -71 -1 -36 -19 19 -28 20 -92 14 l-70 -7 6 -38 c3 -20 3 -44 0 -53 -5
-13 -9 -12 -24 7 -12 14 -15 26 -9 33 13 16 -35 36 -50 21 -15 -15 -14 -59 3
-83 16 -22 6 -51 -13 -40 -7 4 -11 40 -11 89 0 63 3 78 12 69 7 -7 17 -12 22
-12 11 0 46 127 46 163 0 10 9 45 21 80 14 40 17 63 10 65 -6 2 -11 28 -11 58
0 41 4 56 16 61 9 3 20 0 24 -7 4 -7 13 -9 19 -6 16 10 14 36 -3 36 -19 0 -28
27 -10 34 9 4 14 21 14 56 0 74 -25 64 -29 -12 0 -15 -12 -39 -26 -54 -15 -16
-25 -40 -26 -58 -4 -145 -9 -189 -23 -205 -9 -10 -16 -29 -16 -44 0 -16 -12
-39 -30 -57 -17 -17 -30 -36 -30 -44 0 -7 -11 -23 -25 -36 -23 -22 -25 -30
-23 -109 1 -86 1 -86 8 -26 6 57 7 56 8 -30 0 -58 -2 -83 -8 -70 -6 14 -9 4
-9 -37 l-1 -58 530 0 c468 0 529 2 524 15 -8 21 -51 30 -80 16 -20 -9 -24 -8
-24 5 0 10 6 14 14 11 16 -7 32 8 39 38 4 16 5 14 6 -6 1 -28 21 -42 46 -33
11 5 15 -1 15 -19 0 -25 2 -25 72 -26 39 0 77 4 85 10 9 8 13 8 13 0 0 -16 40
-14 46 3 6 15 44 10 44 -5 0 -19 67 -9 88 13 19 21 36 31 125 73 21 10 68 16
141 17 117 3 116 2 164 66 15 21 33 41 39 45 7 4 13 14 13 21 0 7 11 19 25 26
34 18 41 64 19 120 -9 25 -23 52 -31 61 -7 8 -13 36 -13 61 0 49 -28 97 -48
84 -17 -10 -15 -36 4 -57 13 -14 14 -24 6 -46 -6 -15 -11 -22 -11 -14 -1 8 -7
22 -14 30 -18 21 -40 99 -31 112 10 17 -27 49 -58 49 -27 0 -37 -13 -18 -25 6
-4 6 -14 -1 -28 -9 -20 -16 -22 -65 -19 -52 4 -54 5 -39 22 15 16 14 18 -7 23
-12 4 -27 2 -33 -3 -7 -6 -15 -7 -19 -3 -4 4 -19 8 -34 9 -15 1 -37 2 -49 3
-34 2 -28 21 6 21 16 0 42 5 57 10 19 8 29 8 34 0 9 -14 92 -1 87 14 -3 6 -10
10 -18 8 -38 -9 -56 8 -73 69 -12 43 -14 65 -6 73 18 18 11 26 -26 26 -31 0
-35 3 -32 22 4 32 30 33 61 3 31 -31 47 -26 47 16 0 16 5 29 11 29 8 0 10 -17
5 -54 -4 -40 -2 -57 8 -65 11 -10 18 -7 30 11 9 12 16 28 16 35 0 8 12 13 29
13 21 0 37 9 55 32 23 30 27 31 49 19 13 -7 24 -20 23 -28 0 -9 5 -18 12 -21
9 -3 13 3 11 14 -1 11 4 31 11 47 12 24 11 29 -4 40 -24 18 -17 51 11 55 20 3
22 0 17 -27 -13 -62 48 -29 102 55 37 57 43 94 19 114 -8 7 -15 18 -15 26 0 7
-8 38 -17 69 -19 60 -43 74 -43 25 0 -23 -5 -30 -19 -30 -15 0 -21 10 -26 40
-4 22 -15 57 -25 78 -20 42 -6 66 18 30 10 -13 18 -16 25 -9 13 13 -58 81 -86
81 -16 0 -18 -3 -9 -12 15 -15 16 -38 2 -38 -5 0 -10 10 -10 21 0 17 -5 20
-25 17 -14 -3 -28 -1 -31 3 -3 5 9 9 25 9 42 0 42 28 1 37 -17 3 -33 10 -36
14 -3 5 -52 9 -109 9 -57 0 -106 -4 -109 -9z m184 -221 c0 -5 -4 -10 -10 -10
-5 0 -10 5 -10 10 0 6 5 10 10 10 6 0 10 -4 10 -10z m256 -97 c-11 -11 -19 6
-11 24 8 17 8 17 12 0 3 -10 2 -21 -1 -24z m-161 7 c3 -5 -1 -10 -9 -10 -9 0
-16 5 -16 10 0 6 4 10 9 10 6 0 13 -4 16 -10z m145 -35 c0 -7 7 -15 15 -19 8
-3 20 -17 25 -30 7 -21 3 -34 -23 -75 -51 -80 -80 -56 -37 30 22 42 20 73 -7
83 -12 5 -13 9 -3 21 14 16 30 11 30 -10z m-405 -15 c3 -5 1 -10 -4 -10 -6 0
-11 5 -11 10 0 6 2 10 4 10 3 0 8 -4 11 -10z m115 -14 c0 -3 -4 -8 -10 -11 -5
-3 -10 -1 -10 4 0 6 5 11 10 11 6 0 10 -2 10 -4z m-168 -21 c0 -5 -5 -11 -11
-13 -6 -2 -11 4 -11 13 0 9 5 15 11 13 6 -2 11 -8 11 -13z m105 -27 c-3 -8 -6
-5 -6 6 -1 11 2 17 5 13 3 -3 4 -12 1 -19z m-68 -29 c-24 -15 -29 -10 -11 11
10 12 18 16 21 9 2 -6 -3 -15 -10 -20z m170 -13 c11 -8 15 -8 18 2 6 16 23 16
23 -1 0 -12 -46 -36 -97 -52 -13 -3 -23 -11 -23 -16 0 -5 -10 -9 -22 -9 -20 0
-20 1 -5 18 10 10 17 23 17 28 0 6 9 20 20 32 20 21 40 21 69 -2z m-239 -31
c0 -14 -4 -25 -10 -25 -11 0 -14 33 -3 43 11 11 13 8 13 -18z m343 -42 c6 -33
-5 -65 -17 -52 -5 5 -9 45 -7 72 2 31 18 18 24 -20z m-429 -8 c-4 -8 -8 -15
-10 -15 -2 0 -4 7 -4 15 0 8 4 15 10 15 5 0 7 -7 4 -15z m184 -7 c7 -7 12 -21
12 -32 0 -19 -1 -19 -14 -1 -8 12 -20 16 -35 12 -26 -6 -27 1 -3 19 21 17 25
17 40 2z m-328 -28 c0 -19 -1 -19 -20 -3 -11 10 -20 19 -20 20 0 2 9 3 20 3
13 0 20 -7 20 -20z m463 -17 c-9 -58 -23 -64 -23 -10 0 34 4 47 14 47 11 0 13
-9 9 -37z m-603 -8 c0 -8 -4 -15 -10 -15 -5 0 -10 7 -10 15 0 8 5 15 10 15 6
0 10 -7 10 -15z m-70 -55 c0 -5 -9 -10 -19 -10 -11 0 -23 5 -26 10 -4 6 5 10
19 10 14 0 26 -4 26 -10z m440 -21 c0 -5 -4 -9 -10 -9 -5 0 -10 7 -10 16 0 8
5 12 10 9 6 -3 10 -10 10 -16z m-460 -19 c0 -5 -5 -10 -11 -10 -5 0 -7 5 -4
10 3 6 8 10 11 10 2 0 4 -4 4 -10z m520 1 c0 -6 -4 -13 -10 -16 -5 -3 -10 1
-10 9 0 9 5 16 10 16 6 0 10 -4 10 -9z m-47 -27 c3 -3 0 -15 -6 -25 -10 -16
-9 -22 3 -30 13 -8 9 -15 -20 -39 -34 -30 -95 -49 -108 -35 -4 4 -1 10 6 12 6
3 12 10 12 16 0 17 81 107 95 107 6 0 14 -3 18 -6z m-646 -10 c-3 -3 -12 -4
-19 -1 -8 3 -5 6 6 6 11 1 17 -2 13 -5z m510 -16 c-3 -8 -6 -5 -6 6 -1 11 2
17 5 13 3 -3 4 -12 1 -19z m-26 -45 c-10 -17 -10 -16 -11 3 0 23 13 41 18 25
2 -6 -1 -18 -7 -28z m234 -10 c-8 -35 -9 -35 -28 -27 -15 5 -15 8 0 30 21 33
37 31 28 -3z m-814 -70 c-24 -3 -35 -11 -39 -26 -5 -20 -6 -20 -12 -1 -11 28
-3 34 43 32 39 -1 39 -2 8 -5z m576 -45 c-3 -8 -6 -5 -6 6 -1 11 2 17 5 13 3
-3 4 -12 1 -19z m111 15 c-10 -2 -28 -2 -40 0 -13 2 -5 4 17 4 22 1 32 -1 23
-4z m-574 -53 c8 0 16 -6 19 -14 3 -8 22 -16 43 -18 40 -3 61 -28 24 -28 -25
0 -80 27 -80 39 0 5 -16 12 -35 15 -19 4 -35 13 -35 20 0 24 13 26 32 6 10
-11 25 -20 32 -20z m-80 -1 c-10 -16 -24 -9 -24 12 0 18 2 19 15 9 8 -7 12
-16 9 -21z m519 24 c-7 -2 -19 -2 -25 0 -7 3 -2 5 12 5 14 0 19 -2 13 -5z
m-963 -38 c0 -16 -6 -25 -15 -25 -18 0 -19 4 -3 30 16 26 18 25 18 -5z m300 5
c13 -9 11 -13 -10 -30 -29 -23 -46 -25 -53 -7 -12 34 29 59 63 37z m558 3
c-16 -2 -28 -9 -28 -14 0 -5 -4 -9 -10 -9 -5 0 -10 7 -10 15 0 11 10 15 38 14
30 -2 32 -3 10 -6z m592 -13 c0 -11 -4 -20 -10 -20 -5 0 -10 9 -10 20 0 11 5
20 10 20 6 0 10 -9 10 -20z m-1300 -49 c0 -10 -7 -24 -15 -31 -8 -7 -15 -22
-16 -34 0 -15 -4 -10 -12 14 -11 31 -10 37 8 52 26 23 35 22 35 -1z m1094 -11
c8 0 16 7 20 15 8 23 31 18 46 -10 12 -23 15 -24 31 -9 16 15 19 14 31 -5 7
-12 18 -21 25 -21 16 0 -28 -69 -45 -70 -7 0 -17 11 -22 25 -11 30 -40 33 -65
5 -10 -11 -23 -16 -29 -12 -6 4 -24 7 -41 8 -124 2 -215 8 -187 11 21 3 32 10
33 21 1 15 2 15 6 0 8 -30 50 -22 68 12 15 29 23 34 56 31 9 -1 22 5 29 14 12
15 14 15 22 1 5 -9 15 -16 22 -16z m-934 -10 c0 -5 -7 -10 -15 -10 -8 0 -15 5
-15 10 0 6 7 10 15 10 8 0 15 -4 15 -10z m1180 -29 c16 -32 12 -41 -19 -41
-38 0 -46 14 -24 40 22 25 30 25 43 1z m-835 0 c3 -5 1 -12 -5 -16 -5 -3 -10
1 -10 9 0 18 6 21 15 7z m-605 -21 c13 -8 13 -11 -2 -26 -20 -20 -38 -11 -31
16 6 22 11 24 33 10z m143 -23 c22 -12 23 -15 11 -32 -14 -19 -15 -19 -35 2
-12 11 -18 26 -15 32 9 14 8 14 39 -2z m1367 -2 c0 -9 -9 -15 -21 -15 -18 0
-19 2 -9 15 7 8 16 15 21 15 5 0 9 -7 9 -15z m-782 -18 c21 -16 14 -24 -18
-19 -21 3 -30 10 -30 23 0 19 20 17 48 -4z m102 3 c16 -14 18 -20 9 -20 -16 0
-39 19 -39 32 0 12 5 10 30 -12z m228 -22 c-6 -18 -28 -21 -28 -4 0 9 7 16 16
16 9 0 14 -5 12 -12z m482 -35 c0 -23 -4 -33 -9 -27 -9 8 -4 64 5 64 2 0 4
-17 4 -37z m-523 11 c-3 -3 -12 -4 -19 -1 -8 3 -5 6 6 6 11 1 17 -2 13 -5z
m213 -34 c0 -22 -2 -40 -4 -40 -5 0 -46 65 -46 74 0 3 11 6 25 6 23 0 25 -4
25 -40z m-123 -5 c-5 -29 -3 -35 12 -35 9 0 23 6 30 13 10 10 15 8 27 -7 15
-21 3 -46 -21 -46 -8 0 -16 -8 -18 -17 -4 -14 -5 -13 -6 3 -1 26 -19 34 -74
34 l-41 0 44 44 c25 24 47 44 49 45 2 1 1 -15 -2 -34z m-881 -92 c20 -7 18
-23 -4 -23 -25 0 -46 58 -29 78 10 13 13 10 15 -17 2 -18 10 -35 18 -38z
m-306 -25 c0 -9 7 -24 16 -32 8 -9 11 -16 5 -16 -16 0 -51 37 -51 54 0 7 -7
19 -15 26 -8 7 -15 18 -15 25 0 8 13 2 30 -13 17 -15 30 -34 30 -44z m830 22
c-13 -11 -27 -20 -32 -20 -14 0 26 38 41 39 9 1 5 -7 -9 -19z m216 -5 c19 -30
44 -32 66 -6 20 23 70 17 67 -8 -3 -35 1 -43 21 -38 18 5 40 -16 40 -37 0 -9
-38 -7 -44 3 -3 4 -25 11 -48 15 -23 4 -48 12 -55 17 -17 15 -51 2 -48 -19 1
-9 0 -11 -2 -4 -3 6 -21 13 -41 13 -23 1 -29 3 -14 6 18 4 22 11 22 44 0 45
12 50 36 14z m-607 -11 c2 -2 -14 -4 -37 -4 -23 0 -42 4 -42 9 0 9 69 4 79 -5z
m854 -18 c-1 -16 -4 -31 -7 -33 -11 -11 -26 10 -26 38 0 24 4 30 18 27 12 -3
16 -12 15 -32z m47 -11 c0 -8 8 -15 18 -16 9 0 12 -3 5 -5 -15 -6 -53 13 -53
26 0 6 7 10 15 10 8 0 15 -7 15 -15z m170 5 c0 -5 -4 -10 -10 -10 -5 0 -10 5
-10 10 0 6 5 10 10 10 6 0 10 -4 10 -10z m-1340 -15 c0 -8 -4 -15 -9 -15 -5 0
-11 7 -15 15 -3 9 0 15 9 15 8 0 15 -7 15 -15z m260 -15 c0 -13 -11 -13 -30 0
-12 8 -11 10 8 10 12 0 22 -4 22 -10z m1050 0 c0 -5 -4 -10 -10 -10 -5 0 -10
5 -10 10 0 6 5 10 10 10 6 0 10 -4 10 -10z m-1220 -10 c0 -13 -11 -13 -30 0
-12 8 -11 10 8 10 12 0 22 -4 22 -10z m167 -46 c-3 -3 -12 -4 -19 -1 -8 3 -5
6 6 6 11 1 17 -2 13 -5z m436 -14 c16 -19 16 -20 -3 -20 -13 0 -20 7 -20 20 0
11 1 20 3 20 1 0 10 -9 20 -20z m-326 -32 c-3 -8 -6 -5 -6 6 -1 11 2 17 5 13
3 -3 4 -12 1 -19z"/>
<path d="M1571 464 c0 -11 3 -14 6 -6 3 7 2 16 -1 19 -3 4 -6 -2 -5 -13z"/>
<path d="M1412 183 c2 -10 10 -18 18 -18 22 0 18 29 -3 33 -14 3 -18 -1 -15
-15z"/>
<path d="M1405 1480 c3 -5 12 -10 20 -10 8 0 17 5 20 10 4 6 -5 10 -20 10 -15
0 -24 -4 -20 -10z"/>
<path d="M1462 1434 c-12 -8 -22 -19 -22 -25 0 -12 -37 -49 -49 -49 -5 0 -12
-6 -14 -12 -3 -8 -6 -6 -6 5 -1 9 4 17 9 17 6 0 10 7 10 15 0 9 7 18 15 21 20
8 19 34 0 34 -19 0 -69 -50 -87 -87 -7 -15 -26 -34 -41 -41 -15 -7 -27 -19
-27 -27 0 -7 -12 -15 -27 -17 -25 -3 -28 -7 -28 -43 0 -34 3 -40 23 -43 12 -2
22 -8 22 -13 0 -5 -10 -9 -22 -9 -13 0 -34 -9 -47 -19 -14 -10 -30 -17 -37
-14 -7 2 -15 0 -18 -6 -10 -15 61 -26 79 -11 8 6 19 9 24 5 6 -3 30 12 53 34
32 31 50 41 75 41 37 0 67 22 77 57 5 17 2 23 -16 29 l-23 7 23 8 c12 5 22 17
22 27 0 15 10 21 39 26 39 6 39 6 36 48 -4 59 -4 58 -13 58 -4 0 -18 -7 -30
-16z m-102 -133 c0 -22 -15 -35 -30 -26 -6 4 -5 13 3 25 15 25 27 25 27 1z
m-60 -74 c0 -5 -8 -16 -17 -23 -15 -10 -21 -9 -34 4 -14 15 -14 20 -1 40 14
21 16 22 33 6 11 -10 19 -22 19 -27z m80 13 c0 -13 -7 -20 -20 -20 -19 0 -19
1 -2 19 22 25 22 25 22 1z"/>
<path d="M1250 1230 c0 -5 5 -10 11 -10 5 0 7 5 4 10 -3 6 -8 10 -11 10 -2 0
-4 -4 -4 -10z"/>
<path d="M1067 1425 c-21 -7 -41 -15 -44 -18 -10 -11 9 -46 29 -53 21 -6 21
-7 4 -20 -16 -11 -17 -18 -7 -45 14 -40 14 -39 -2 -33 -9 3 -13 -3 -13 -18 1
-16 -5 -24 -21 -26 -22 -3 -50 -28 -41 -37 8 -9 102 13 106 24 7 20 39 11 50
-14 13 -27 32 -34 32 -11 0 8 3 21 6 30 4 10 -6 27 -29 47 -31 27 -34 34 -27
60 7 23 5 32 -12 43 -20 14 -20 15 6 43 42 46 32 53 -37 28z"/>
<path d="M1582 1428 c-21 -21 -14 -48 11 -48 32 0 38 8 25 36 -13 27 -19 29
-36 12z"/>
<path d="M1930 1371 c0 -11 4 -22 9 -25 11 -7 20 14 13 32 -7 19 -22 14 -22
-7z"/>
<path d="M1190 1364 c0 -9 -13 -21 -30 -27 -23 -9 -30 -17 -30 -39 0 -23 4
-28 25 -28 14 0 33 8 43 18 21 21 25 92 5 92 -7 0 -13 -7 -13 -16z"/>
<path d="M1640 1370 c0 -5 4 -10 9 -10 6 0 13 5 16 10 3 6 -1 10 -9 10 -9 0
-16 -4 -16 -10z"/>
<path d="M1250 1341 c0 -6 5 -13 10 -16 6 -3 10 1 10 9 0 9 -4 16 -10 16 -5 0
-10 -4 -10 -9z"/>
<path d="M1447 1274 c-8 -8 3 -34 14 -34 11 0 12 27 0 34 -4 3 -11 3 -14 0z"/>
<path d="M400 1170 c0 -5 7 -10 15 -10 8 0 15 5 15 10 0 6 -7 10 -15 10 -8 0
-15 -4 -15 -10z"/>
<path d="M260 1078 c-1 -13 -7 -34 -15 -48 -16 -28 -20 -100 -6 -100 13 0 41
93 41 134 0 20 -4 36 -10 36 -5 0 -10 -10 -10 -22z"/>
<path d="M424 1035 c-3 -8 -3 -18 0 -23 3 -6 -1 -12 -9 -16 -8 -3 -15 -13 -15
-21 0 -21 45 -16 46 5 0 8 4 23 8 32 8 19 1 38 -15 38 -5 0 -12 -7 -15 -15z"/>
<path d="M1110 1030 c0 -5 7 -10 15 -10 8 0 15 5 15 10 0 6 -7 10 -15 10 -8 0
-15 -4 -15 -10z"/>
<path d="M320 970 c0 -5 4 -10 9 -10 6 0 13 5 16 10 3 6 -1 10 -9 10 -9 0 -16
-4 -16 -10z"/>
<path d="M310 920 c0 -5 7 -10 15 -10 8 0 15 5 15 10 0 6 -7 10 -15 10 -8 0
-15 -4 -15 -10z"/>
<path d="M428 885 c-15 -33 -5 -41 32 -25 38 16 42 50 5 50 -17 0 -29 -8 -37
-25z"/>
<path d="M1781 874 c-7 -8 -11 -18 -7 -21 9 -10 36 6 36 22 0 19 -11 19 -29
-1z"/>
<path d="M474 809 c-7 -12 15 -31 31 -26 6 2 11 11 13 20 4 19 -32 24 -44 6z"/>
<path d="M1596 813 c-9 -9 -7 -33 3 -33 12 0 22 28 12 34 -5 3 -11 3 -15 -1z"/>
<path d="M425 781 c-7 -12 12 -24 25 -16 11 7 4 25 -10 25 -5 0 -11 -4 -15 -9z"/>
<path d="M393 718 c2 -7 10 -13 17 -13 7 0 15 6 18 13 2 7 -5 12 -18 12 -13 0
-20 -5 -17 -12z"/>
<path d="M270 700 c-17 -10 -13 -17 15 -22 12 -2 21 3 23 15 4 18 -14 22 -38
7z"/>
<path d="M1673 649 c-14 -14 -6 -39 12 -39 15 0 24 19 17 38 -5 15 -15 15 -29
1z"/>
<path d="M207 543 c-11 -10 -8 -121 3 -128 6 -4 4 -17 -5 -36 -18 -33 -13 -49
16 -49 15 0 19 7 20 33 1 17 3 24 6 15 6 -25 43 -23 43 2 0 11 -6 20 -14 20
-16 0 -36 50 -36 91 0 47 -15 71 -33 52z"/>
</g>
</svg>
