<?xml version="1.0"?>
<!DOCTYPE svg PUBLIC "-//W3C//DTD SVG 1.1//EN" "http://www.w3.org/Graphics/SVG/1.1/DTD/svg11.dtd">
<!--Phoronix Test Suite v8.6.1 [ http://www.phoronix-test-suite.com/ ]-->
<svg xmlns="http://www.w3.org/2000/svg" xmlns:xlink="http://www.w3.org/1999/xlink" version="1.1" font-family="sans-serif, droid-sans, helvetica, verdana, tahoma" viewbox="0 0 434 313" width="434" height="313" preserveAspectRatio="xMinYMin meet"><rect x="0" y="0" width="434" height="313" fill="#FEFEFE" stroke="#757575" stroke-width="2"/><rect x="1" y="1" width="433" height="312" fill="#FEFEFE" stroke="#757575" stroke-width="1"/><path d="m74 22v9m-5-16v16m-5-28v28m-23-2h12.5c2.485281 0 4.5-2.014719 4.5-4.5s-2.014719-4.5-4.5-4.5h-8c-2.485281 0-4.5-2.014719-4.5-4.5s2.014719-4.5 4.5-4.5h12.5m-21 5h-11m11 13h-2c-4.970563 0-9-4.029437-9-9v-20m-24 40v-20c0-4.970563 4.0294373-9 9-9 4.970563 0 9 4.029437 9 9s-4.029437 9-9 9h-9" stroke="#000000" stroke-width="4" fill="none" transform="translate(107,28)"/><line x1="294" y1="161" x2="434" y2="161" stroke="#BABABA" stroke-width="272" stroke-dasharray="140,140"/><line x1="217" y1="73" x2="217" y2="297" stroke="#949494" stroke-width="434" stroke-dasharray="16,16"/><line x1="294" y1="161" x2="434" y2="161" stroke="#757575" stroke-width="272" stroke-dasharray="1,139"/><rect x="1" y="1" width="432" height="25" fill="#231f20"/><text x="5" y="19" font-size="17" fill="#FEFEFE" text-anchor="start">Thinkpad T495s CPU</text><line x1="1" y1="25" x2="433" y2="25" stroke="#757575" stroke-width="1"/><g font-size="10" font-weight="bold" fill="#065695" text-anchor="end"><a xlink:href="https://openbenchmarking.org/test/pts/rodinia-1.2.2" xlink:show="new"><text x="292" y="85">rodinia: Test: OpenMP LavaMD</text></a><a xlink:href="https://openbenchmarking.org/test/pts/rodinia-1.2.2" xlink:show="new"><text x="292" y="101">rodinia: Test: OpenMP CFD Solver</text></a><a xlink:href="https://openbenchmarking.org/test/pts/namd-1.0.1" xlink:show="new"><text x="292" y="117">namd: ATPase Simulation - 327,506 Atoms</text></a><a xlink:href="https://openbenchmarking.org/test/pts/compress-7zip-1.7.0" xlink:show="new"><text x="292" y="133">compress-7zip: Compress Speed Test</text></a><a xlink:href="https://openbenchmarking.org/test/pts/stockfish-1.1.1" xlink:show="new"><text x="292" y="149">stockfish: Total Time</text></a><a xlink:href="https://openbenchmarking.org/test/pts/asmfish-1.1.1" xlink:show="new"><text x="292" y="165">asmfish: 1024 Hash Memory, 26 Depth</text></a><a xlink:href="https://openbenchmarking.org/test/pts/build-gcc-1.1.1" xlink:show="new"><text x="292" y="181">build-gcc: Time To Compile</text></a><a xlink:href="https://openbenchmarking.org/test/pts/build-linux-kernel-1.9.1" xlink:show="new"><text x="292" y="197">build-linux-kernel: Time To Compile</text></a><a xlink:href="https://openbenchmarking.org/test/pts/povray-1.2.1" xlink:show="new"><text x="292" y="213">povray: Trace Time</text></a><a xlink:href="https://openbenchmarking.org/test/pts/radiance-1.0.0" xlink:show="new"><text x="292" y="229">radiance: Test: Serial</text></a><a xlink:href="https://openbenchmarking.org/test/pts/radiance-1.0.0" xlink:show="new"><text x="292" y="245">radiance: Test: SMP Parallel</text></a><a xlink:href="https://openbenchmarking.org/test/pts/openssl-1.11.0" xlink:show="new"><text x="292" y="261">openssl: RSA 4096-bit Performance</text></a><a xlink:href="https://openbenchmarking.org/test/pts/ctx-clock-1.0.0" xlink:show="new"><text x="292" y="277">ctx-clock: Context Switch Time</text></a><a xlink:href="https://openbenchmarking.org/test/pts/sysbench-1.0.0" xlink:show="new"><text x="292" y="293">sysbench: Test: CPU</text></a></g><g font-size="10" fill="#065695" font-weight="bold" text-anchor="middle" dominant-baseline="text-before-edge"><text x="364" y="49">Thinkpad T495s CPU</text></g><g fill="#BABABA"/><g text-anchor="middle" font-size="10" fill="#065695"><text x="364" y="86" xlink:title="STD Dev: 3.50%;  STD Error: 1.15">98.84</text><text x="364" y="102" xlink:title="STD Dev: 1.90%;  STD Error: 0.74">67.33</text><text x="364" y="118" xlink:title="STD Dev: 0.22%;  STD Error: 0.01">7.87774</text><text x="364" y="134" xlink:title="STD Dev: 1.96%;  STD Error: 157.63">13941</text><text x="364" y="150" xlink:title="STD Dev: 0.77%;  STD Error: 32685.82">7326738</text><text x="364" y="166" xlink:title="STD Dev: 1.46%;  STD Error: 64227.60">7619240</text><text x="364" y="182">2441</text><text x="364" y="198" xlink:title="STD Dev: 9.52%;  STD Error: 9.13">287.58</text><text x="364" y="214" xlink:title="STD Dev: 2.83%;  STD Error: 2.95">180.03</text><text x="364" y="230">884</text><text x="364" y="246">402.15</text><text x="364" y="262" xlink:title="STD Dev: 8.33%;  STD Error: 12.89">535.86</text><text x="364" y="278">105</text><text x="364" y="294" xlink:title="STD Dev: 0.42%;  STD Error: 16.02">6565.61</text></g><line x1="217" y1="73" x2="217" y2="297" stroke="#949494" stroke-width="434" stroke-dasharray="1,15"/><rect x="0" y="297" width="434" height="16" fill="#231f20"/><a xlink:href="https://www.phoronix-test-suite.com/" xlink:show="new"><text x="432" y="310" font-size="10" fill="#FFFFFF" text-anchor="end" xlink:show="new">PHORONIX-TEST-SUITE.COM</text></a></svg>
