<?xml version="1.0"?>
<!DOCTYPE svg PUBLIC "-//W3C//DTD SVG 1.1//EN" "http://www.w3.org/Graphics/SVG/1.1/DTD/svg11.dtd">
<!--Phoronix Test Suite v8.6.1 [ http://www.phoronix-test-suite.com/ ]-->
<svg xmlns="http://www.w3.org/2000/svg" xmlns:xlink="http://www.w3.org/1999/xlink" version="1.1" font-family="sans-serif, droid-sans, helvetica, verdana, tahoma" viewbox="0 0 290 168" width="290" height="168" preserveAspectRatio="xMinYMin meet"><rect x="0" y="0" width="290" height="168" fill="#FEFEFE" stroke="#757575" stroke-width="2"/><rect x="1" y="1" width="289" height="167" fill="#FEFEFE" stroke="#757575" stroke-width="1"/><path d="m74 22v9m-5-16v16m-5-28v28m-23-2h12.5c2.485281 0 4.5-2.014719 4.5-4.5s-2.014719-4.5-4.5-4.5h-8c-2.485281 0-4.5-2.014719-4.5-4.5s2.014719-4.5 4.5-4.5h12.5m-21 5h-11m11 13h-2c-4.970563 0-9-4.029437-9-9v-20m-24 40v-20c0-4.970563 4.0294373-9 9-9 4.970563 0 9 4.029437 9 9s-4.029437 9-9 9h-9" stroke="#000000" stroke-width="4" fill="none" transform="translate(31,43)"/><line x1="142" y1="96" x2="290" y2="96" stroke="#BABABA" stroke-width="112" stroke-dasharray="148,148"/><line x1="145" y1="88" x2="145" y2="152" stroke="#949494" stroke-width="290" stroke-dasharray="16,16"/><line x1="142" y1="96" x2="290" y2="96" stroke="#757575" stroke-width="112" stroke-dasharray="1,147"/><rect x="1" y="1" width="288" height="40" fill="#231f20"/><text x="5" y="19" font-size="17" fill="#FEFEFE" text-anchor="start">Flexible IO Tester</text><text x="5" y="33" font-size="11" fill="#FEFEFE" text-anchor="start">Type: Random Read - IO Engine: Sync - Buffered: Yes - Direct: No - Block Size: 8MB - Disk Target: Default Test Directory</text><line x1="1" y1="40" x2="289" y2="40" stroke="#757575" stroke-width="1"/><g font-size="10" font-weight="bold" fill="#065695" text-anchor="end"><text x="140" y="100">Results</text><text x="140" y="116">Difference</text><text x="140" y="132">Standard Error</text><text x="140" y="148">Standard Deviation</text></g><g font-size="10" fill="#065695" font-weight="bold" text-anchor="middle" dominant-baseline="text-before-edge"><text x="216" y="64">ThinkPad T495s</text></g><g fill="#BABABA"/><g text-anchor="middle" font-size="10" fill="#065695"><text x="216" y="101" xlink:title="STD Dev: 3.50%;  STD Error: 76.16" fill="#C80000">4868</text><text x="216" y="117">1.00x</text><text x="216" y="133">76.16</text><text x="216" y="149">3.50%</text></g><line x1="145" y1="88" x2="145" y2="152" stroke="#949494" stroke-width="290" stroke-dasharray="1,15"/><rect x="0" y="152" width="290" height="16" fill="#231f20"/><a xlink:href="https://www.phoronix-test-suite.com/" xlink:show="new"><text x="288" y="165" font-size="10" fill="#FFFFFF" text-anchor="end" xlink:show="new">PHORONIX-TEST-SUITE.COM</text></a></svg>
